<?xml version="1.0" standalone="no"?>
<!DOCTYPE svg PUBLIC "-//W3C//DTD SVG 20010904//EN"
 "http://www.w3.org/TR/2001/REC-SVG-20010904/DTD/svg10.dtd">
<svg version="1.0" xmlns="http://www.w3.org/2000/svg"
 width="700.000000pt" height="700.000000pt" viewBox="0 0 700.000000 700.000000"
 preserveAspectRatio="xMidYMid meet">
<metadata>
Created by potrace 1.14, written by Peter Selinger 2001-2017
</metadata>
<g transform="translate(0.000000,700.000000) scale(0.100000,-0.100000)"
fill="#000000" stroke="none">
<path d="M2966 6062 c-2 -2 -26 -5 -53 -6 -26 -2 -91 -17 -143 -34 -52 -16
-129 -35 -170 -41 -41 -6 -86 -13 -100 -16 -30 -6 -182 -34 -225 -41 -97 -17
-274 -60 -364 -90 -135 -45 -232 -96 -299 -159 -47 -43 -54 -56 -56 -90 -1
-33 4 -42 31 -61 l32 -21 -37 -35 c-20 -18 -64 -54 -97 -80 -33 -25 -69 -54
-80 -65 -11 -10 -51 -45 -88 -76 -129 -109 -355 -365 -439 -497 -107 -168
-170 -317 -202 -472 -11 -51 -38 -122 -78 -205 -56 -116 -62 -134 -63 -193 0
-64 1 -65 32 -80 29 -13 32 -19 28 -46 -11 -77 -18 -223 -19 -394 l0 -185 53
-140 c72 -189 166 -385 185 -385 8 0 17 -9 21 -19 4 -13 12 -17 25 -14 11 3
20 6 20 8 0 1 -11 37 -25 80 -61 187 -72 244 -91 470 -3 44 -8 98 -10 120 -7
81 -7 532 0 585 14 101 48 254 78 350 42 132 134 321 198 405 29 39 78 119
108 179 30 60 90 156 133 213 47 63 79 114 79 129 0 18 7 25 29 31 17 5 67 44
113 89 46 44 117 107 158 140 70 56 237 171 270 187 8 4 29 16 45 26 202 123
607 277 945 360 160 39 256 57 273 53 5 -1 6 1 3 6 -3 4 -30 5 -61 2 -41 -4
-59 -2 -67 7 -10 12 -82 16 -92 5z"/>
<path d="M3549 6026 c-2 -2 -42 -6 -89 -10 -118 -9 -287 -34 -420 -63 -208
-44 -477 -125 -680 -205 -312 -121 -587 -291 -812 -500 l-47 -43 30 -26 29
-27 43 32 c102 78 236 161 335 208 59 28 153 78 210 111 56 32 137 74 180 92
69 29 80 31 97 19 31 -23 76 -16 145 22 151 84 148 83 310 99 25 3 122 7 215
10 180 5 265 12 330 25 240 51 343 71 415 79 108 12 467 7 540 -8 54 -12 78
-15 170 -26 49 -6 114 -15 145 -21 11 -2 34 -7 50 -10 89 -16 240 -60 315 -91
97 -41 208 -110 243 -152 13 -16 44 -41 68 -56 86 -54 354 -250 389 -285 40
-40 272 -490 315 -613 22 -63 25 -81 17 -109 -15 -50 -12 -70 11 -64 22 5 63
-33 79 -74 l10 -25 13 35 c6 19 20 37 29 38 15 3 17 11 12 50 -19 146 -40 202
-198 517 -160 320 -170 335 -293 422 -38 28 -120 86 -181 130 -98 70 -302 193
-322 193 -4 0 -27 16 -51 35 -24 19 -47 35 -50 35 -3 0 -20 13 -37 29 -46 44
-128 85 -234 119 -97 31 -120 36 -225 47 -33 4 -71 8 -85 11 -14 2 -59 6 -100
9 -41 3 -91 8 -110 10 -19 2 -75 7 -125 10 -49 4 -106 9 -125 11 -48 6 -556
15 -561 10z"/>
<path d="M4428 5753 c12 -2 30 -2 40 0 9 3 -1 5 -23 4 -22 0 -30 -2 -17 -4z"/>
<path d="M5337 5050 c-52 -10 -88 -38 -115 -90 -20 -41 -22 -55 -18 -175 2
-71 9 -155 15 -185 5 -30 13 -75 16 -100 18 -139 48 -276 75 -345 25 -65 86
-107 159 -108 136 -1 200 81 192 245 -1 23 -5 27 -23 24 -13 -3 -33 -5 -44 -5
-18 -1 -23 -9 -28 -51 -6 -41 -11 -51 -31 -56 -72 -18 -85 10 -144 306 -25
122 -45 322 -37 362 8 41 33 68 62 68 25 0 54 -34 54 -62 0 -24 55 -25 64 -2
15 40 -36 138 -85 165 -27 14 -66 17 -112 9z"/>
<path d="M4935 5008 c-110 -23 -133 -28 -170 -33 -22 -3 -65 -10 -96 -16 l-56
-11 10 -38 c10 -36 12 -37 40 -28 46 17 43 29 63 -262 3 -47 7 -101 9 -120 2
-19 6 -64 10 -100 3 -36 8 -87 11 -115 9 -78 11 -174 6 -201 -4 -20 -10 -24
-38 -24 -29 0 -34 -3 -34 -24 0 -25 26 -60 39 -52 5 4 52 10 236 31 17 2 54 6
83 9 59 6 72 11 72 31 0 19 -28 34 -51 28 -15 -4 -19 0 -20 18 0 13 -2 31 -4
40 -1 8 -6 42 -9 75 -7 64 -17 139 -22 166 -1 9 -5 57 -9 105 -3 48 -8 108
-10 133 -3 25 -7 68 -10 96 -3 27 -10 81 -17 120 -17 87 -13 112 15 116 17 2
22 10 22 32 0 33 -11 37 -70 24z"/>
<path d="M4188 4934 c-2 -1 -34 -5 -73 -9 -75 -7 -97 -22 -89 -58 3 -12 7 -38
9 -57 3 -19 7 -48 9 -65 3 -16 16 -106 30 -200 14 -93 27 -181 30 -195 2 -14
7 -47 11 -75 3 -27 15 -82 26 -121 10 -39 21 -88 23 -110 8 -85 19 -136 31
-148 11 -11 49 -13 109 -7 11 1 -3 379 -18 501 l-5 35 24 -45 c24 -48 65 -163
111 -315 28 -93 41 -118 54 -110 5 3 34 6 64 7 64 3 65 4 41 83 -9 28 -27 93
-41 145 -26 98 -62 203 -95 279 l-20 44 31 30 c17 17 37 42 45 56 20 41 24
120 8 176 -32 108 -100 155 -233 159 -43 2 -81 2 -82 0z m64 -140 c54 -28 85
-108 63 -161 -23 -53 -107 -102 -125 -73 -5 7 -16 56 -25 109 -10 53 -21 106
-26 118 -5 14 -4 23 4 26 18 7 79 -3 109 -19z"/>
<path d="M3581 4807 c-59 -12 -113 -47 -141 -92 -21 -34 -22 -44 -16 -158 3
-67 8 -133 11 -146 2 -14 7 -47 10 -75 3 -28 11 -71 16 -96 6 -24 12 -76 14
-115 7 -116 36 -217 81 -285 34 -51 67 -72 122 -75 135 -10 239 149 244 372 2
83 -9 281 -17 293 -2 3 -6 32 -9 65 -13 126 -56 242 -106 283 -41 35 -124 46
-209 29z m103 -153 c27 -26 34 -46 41 -114 9 -96 14 -132 20 -160 5 -23 16
-186 18 -275 1 -61 -11 -122 -29 -139 -40 -40 -76 -3 -88 89 -15 126 -56 427
-67 493 -12 70 -11 73 11 97 27 29 71 33 94 9z"/>
<path d="M3261 4768 c-14 -5 -41 -11 -60 -13 -20 -3 -47 -7 -61 -10 -21 -4
-424 -101 -456 -110 -8 -3 -8 -17 1 -52 l13 -48 53 4 c30 2 76 4 103 5 55 1
50 10 60 -99 7 -78 15 -144 21 -175 2 -14 7 -43 9 -65 12 -92 38 -263 47 -305
5 -25 14 -70 20 -101 l11 -56 36 7 c21 5 55 11 77 14 99 15 104 18 100 66 -9
105 -16 199 -20 280 -3 52 -8 106 -10 120 -3 14 -7 62 -10 107 -4 45 -10 95
-14 110 -4 15 -7 55 -7 87 l1 60 36 8 c20 4 49 9 64 12 34 6 45 21 40 55 -1
14 -3 42 -4 62 -1 41 -14 51 -50 37z"/>
<path d="M2353 4614 c-44 -22 -70 -66 -88 -155 -20 -92 -20 -151 -1 -259 26
-140 35 -176 71 -285 63 -188 87 -240 131 -285 43 -43 46 -45 109 -47 70 -2
109 16 148 69 22 30 35 126 23 173 -6 23 -11 26 -44 23 -30 -2 -40 -9 -51 -33
-16 -34 -29 -45 -54 -45 -20 0 -38 36 -62 122 -8 29 -21 73 -29 98 -90 264
-115 391 -85 440 22 36 67 42 87 10 17 -28 68 -27 77 1 12 38 -5 106 -34 138
-45 48 -137 65 -198 35z"/>
<path d="M1987 4564 c-1 -1 -28 -5 -59 -8 -32 -3 -69 -11 -83 -16 -15 -6 -41
-10 -59 -10 -18 0 -41 -6 -51 -14 -16 -12 -18 -19 -9 -43 8 -22 15 -27 35 -25
34 4 45 -12 52 -73 3 -27 17 -104 31 -170 14 -66 34 -183 46 -260 11 -77 22
-151 24 -165 3 -14 7 -60 10 -104 4 -43 8 -81 10 -85 8 -12 -8 -28 -39 -38
-19 -6 -30 -17 -31 -29 -1 -33 16 -44 55 -39 20 3 97 8 171 11 74 3 140 10
146 15 8 7 10 20 4 39 -13 46 -18 50 -45 40 -31 -12 -36 -4 -41 73 -7 117 -29
306 -54 462 -5 33 -11 74 -14 90 -2 17 -13 66 -24 110 -34 131 -35 142 -11
166 11 11 18 27 15 36 -3 8 -6 21 -6 29 0 11 -10 14 -35 12 -20 -1 -37 -3 -38
-4z"/>
<path d="M1305 4393 c-80 -17 -97 -27 -90 -57 2 -11 6 -46 9 -77 3 -31 10 -79
17 -105 6 -27 13 -60 15 -74 2 -14 9 -47 14 -75 10 -54 15 -82 26 -160 3 -27
8 -59 11 -70 5 -26 20 -162 27 -240 6 -73 16 -124 27 -147 8 -15 14 -16 57 -3
26 7 66 16 90 20 34 5 42 11 43 28 5 129 -6 301 -25 394 l-14 63 38 33 c61 56
87 98 111 179 30 103 19 164 -44 228 -79 81 -151 95 -312 63z m131 -105 c50
-34 65 -68 63 -140 -2 -52 -7 -71 -33 -108 l-30 -45 -12 40 c-7 22 -13 48 -13
58 -1 10 -10 44 -21 76 -20 61 -31 127 -22 136 11 11 37 4 68 -17z"/>
<path d="M6347 3994 c-3 -11 -9 -39 -12 -64 -4 -25 -9 -54 -12 -65 -2 -11 -4
-58 -3 -105 4 -181 0 -268 -16 -345 -9 -44 -15 -107 -14 -140 1 -33 3 -101 5
-152 1 -50 -2 -113 -7 -140 -5 -26 -12 -59 -14 -73 -3 -14 -10 -45 -15 -70
-16 -73 -21 -138 -11 -156 16 -28 -55 -254 -126 -403 -74 -156 -322 -448 -481
-568 -71 -53 -322 -192 -461 -256 -36 -16 -98 -44 -138 -63 -104 -49 -247
-100 -380 -134 -144 -37 -172 -53 -51 -29 30 6 65 13 79 15 197 39 496 146
710 256 374 192 584 393 757 728 75 145 196 403 241 515 73 179 122 375 111
435 -4 19 -10 46 -12 60 -6 26 -15 147 -23 285 -2 44 -6 99 -10 122 -3 24 -5
45 -5 48 -2 35 -35 138 -53 165 -13 19 -27 55 -30 80 -8 56 -21 81 -29 54z"/>
<path d="M5470 3659 c-86 -22 -99 -33 -116 -91 -7 -24 -24 -81 -38 -127 -14
-46 -28 -93 -30 -105 -5 -26 -35 -146 -42 -165 -3 -8 -18 11 -37 47 -18 34
-70 117 -117 184 -47 67 -88 129 -92 139 -8 21 -45 19 -137 -7 -94 -27 -99
-39 -47 -111 18 -27 48 -75 66 -108 18 -33 63 -107 100 -165 135 -212 128
-197 119 -243 -4 -23 -7 -121 -7 -217 1 -96 -2 -184 -5 -195 -4 -11 -9 -65
-12 -120 -3 -55 -9 -126 -14 -158 -7 -54 -6 -59 13 -66 13 -5 48 0 93 14 43
14 76 19 79 13 3 -5 12 -4 20 3 14 12 15 44 1 66 -7 11 -2 111 8 163 3 13 7
40 10 60 5 36 10 64 20 110 10 49 17 116 19 162 0 27 4 48 7 48 16 0 188 -205
257 -305 22 -33 61 -81 85 -108 42 -45 47 -47 87 -42 50 6 109 34 124 57 8 13
3 26 -21 61 -18 24 -58 93 -89 153 -31 60 -71 129 -88 154 -18 25 -49 74 -70
110 -21 36 -49 81 -63 101 -30 45 -35 85 -23 179 11 84 17 148 26 265 3 44 7
82 9 86 10 15 25 143 20 160 -8 23 -19 23 -115 -2z"/>
<path d="M6170 3661 c0 -6 4 -13 10 -16 6 -3 7 1 4 9 -7 18 -14 21 -14 7z"/>
<path d="M6174 3622 c3 -5 7 -44 11 -87 3 -44 10 -84 16 -90 8 -7 10 4 6 40
-12 103 -20 145 -29 145 -5 0 -7 -4 -4 -8z"/>
<path d="M3390 3270 c-90 -26 -181 -104 -225 -194 -25 -52 -28 -67 -27 -154 2
-158 21 -374 43 -502 21 -124 28 -148 80 -256 54 -114 145 -193 229 -199 45
-4 194 26 238 47 125 59 168 207 149 518 -9 148 -12 163 -74 360 -82 259 -108
307 -197 365 -27 18 -172 28 -216 15z m116 -152 c27 -18 78 -81 80 -97 0 -3 7
-22 16 -42 33 -76 67 -225 83 -369 3 -30 8 -71 10 -90 31 -273 21 -356 -50
-400 -40 -24 -73 -25 -105 -3 -73 50 -109 147 -154 413 -14 80 -34 191 -45
248 -31 170 -23 290 24 342 31 35 88 34 141 -2z"/>
<path d="M4509 3067 c-22 -18 -44 -56 -59 -102 -7 -22 -16 -43 -19 -48 -4 -4
-19 20 -34 53 -19 46 -30 60 -46 60 -26 0 -28 -40 -7 -91 l14 -34 -74 3 c-60
3 -74 1 -74 -11 0 -19 41 -46 81 -54 l31 -6 -46 -44 c-49 -46 -68 -90 -46
-103 19 -12 105 34 132 70 27 37 33 37 36 3 3 -34 46 -126 68 -144 13 -10 17
-10 24 2 10 16 7 135 -3 145 -13 13 -7 24 12 24 31 0 105 29 119 47 27 37 16
45 -54 40 -45 -3 -64 -1 -61 7 29 77 42 174 26 191 -3 2 -12 -1 -20 -8z"/>
<path d="M1735 2989 c-114 -7 -200 -40 -190 -73 3 -12 8 -34 11 -51 16 -95 34
-203 39 -225 3 -14 8 -47 11 -75 4 -27 8 -53 10 -56 2 -4 6 -24 9 -45 7 -45
67 -280 89 -345 27 -83 35 -124 41 -218 6 -95 23 -147 52 -158 24 -9 98 13
198 61 138 66 230 169 251 282 3 21 8 47 10 56 5 30 -22 125 -50 172 -43 73
-126 150 -184 171 l-51 18 34 40 c19 22 41 61 49 86 16 51 19 148 6 198 -12
47 -69 112 -121 138 -54 28 -93 32 -214 24z m93 -179 c40 -25 72 -75 72 -115
-1 -50 -42 -124 -92 -163 -15 -12 -18 -9 -27 25 -5 21 -12 61 -15 88 -3 28
-13 77 -21 109 -13 48 -13 61 -3 68 21 13 51 9 86 -12z m90 -479 c92 -47 137
-128 130 -234 -4 -74 -37 -135 -90 -167 -18 -11 -33 -18 -34 -17 -1 1 -5 36
-9 77 -9 108 -35 254 -46 258 -5 2 -9 14 -9 27 0 13 -4 35 -10 49 -8 23 -7 26
11 26 11 0 37 -9 57 -19z"/>
<path d="M2738 2753 c-8 -10 -23 -33 -34 -51 l-18 -32 -24 25 c-31 34 -96 66
-124 61 -13 -3 -26 -5 -30 -5 -24 -3 19 -99 56 -129 l25 -19 -56 -6 c-57 -6
-91 -26 -79 -46 4 -6 37 -11 77 -11 38 0 69 -3 69 -7 0 -3 -10 -20 -23 -37
-45 -62 -56 -126 -21 -126 17 0 60 47 75 82 14 33 29 28 29 -11 0 -46 20 -92
39 -89 13 3 16 17 15 86 l-2 82 32 1 c61 1 109 16 103 32 -2 7 -28 16 -59 21
l-55 9 24 59 c35 85 22 158 -19 111z"/>
<path d="M907 2501 c-17 -6 -17 -9 -4 -19 12 -10 16 -9 20 8 3 11 4 20 4 19
-1 0 -10 -4 -20 -8z"/>
<path d="M692 2438 c3 -40 17 -74 53 -138 27 -47 77 -141 111 -210 50 -102
122 -214 154 -240 3 -3 36 -43 72 -90 99 -126 332 -358 413 -412 107 -70 348
-206 460 -258 163 -77 316 -121 470 -135 132 -12 170 -16 210 -24 22 -4 59 -7
81 -6 23 2 61 -1 85 -5 24 -4 73 -11 109 -14 36 -3 79 -8 95 -11 66 -11 150
-15 365 -19 207 -5 316 2 483 28 18 3 55 8 82 11 28 4 57 8 65 10 8 2 35 7 60
10 105 15 249 51 455 115 143 44 407 115 499 134 68 14 81 14 95 2 33 -28 60
-29 112 -1 38 19 54 23 64 15 35 -29 118 -6 189 51 16 13 70 57 120 98 124
100 185 158 296 281 52 58 103 114 113 125 91 98 257 346 324 487 39 79 42 92
26 94 -7 1 -17 2 -22 3 -5 0 -11 11 -13 23 -2 16 -20 -12 -63 -97 -166 -331
-314 -504 -592 -688 -297 -198 -771 -374 -1161 -432 -17 -3 -46 -7 -62 -10
-54 -8 -104 -14 -150 -20 -25 -2 -61 -9 -80 -15 -50 -15 -267 -51 -390 -65
-25 -3 -81 -10 -125 -16 -123 -18 -465 -14 -660 6 -179 18 -174 18 -300 35
-44 6 -96 15 -115 20 -36 9 -64 14 -135 24 -100 14 -125 19 -200 38 -220 54
-315 104 -505 263 -58 49 -175 135 -262 192 -215 142 -298 235 -427 479 -32
61 -91 129 -91 106 0 -26 -40 -10 -75 31 -32 37 -37 40 -46 25 -24 -43 -44
-20 -109 117 -35 74 -68 135 -73 135 -5 0 -8 -23 -5 -52z"/>
</g>
</svg>
