<svg width="193" height="78" viewBox="0 0 193 78" fill="none" xmlns="http://www.w3.org/2000/svg">
<path d="M6.77146 12.8443C4.83254 12.9859 2.89362 13.06 0.954712 13.087C2.25398 13.9904 4.84252 14.8062 5.6021 15.0826C8.4605 16.1277 11.059 17.5233 13.6976 18.8514C14.5671 16.4648 15.1767 14.0444 15.3466 11.6038C13.1379 12.6555 9.27005 12.6623 6.77146 12.8443Z" fill="#161613"/>
<path d="M9.42947 11.8733C11.0785 11.725 13.6971 11.6778 15.0163 10.889C15.1363 10.8215 15.2562 10.7946 15.3861 10.7946C15.3961 10.5451 15.3961 10.2889 15.3961 10.0327C15.3661 8.38767 15.2862 6.71565 14.9064 5.09082C14.6765 4.08626 14.4366 2.84574 13.6371 1.90186C10.0291 3.03451 7.92032 4.74024 5.35177 6.78981C4.12246 7.7674 2.1136 9.08884 1.17413 10.471C0.824329 10.8148 0.524496 11.2665 0.234659 11.8935C0.154705 12.0621 0.174692 12.2306 0.264641 12.3992C1.46396 12.3857 2.66328 12.352 3.85261 12.298C5.72156 12.2036 7.57052 12.0418 9.42947 11.8733Z" fill="#161613"/>
<path d="M46.0389 8.00336C43.0306 6.8235 40.1622 5.33349 37.1539 4.32218C33.5859 3.12209 31.0074 1.17363 26.8697 1.09947C22.942 1.0253 18.4545 0.68146 14.6667 1.61861C16.5456 3.76259 16.3857 7.26847 16.4456 9.42594C16.5356 12.7835 15.776 16.0736 14.6067 19.3098C15.3363 19.6739 16.0759 20.0312 16.8254 20.3683C18.9642 21.3257 21.063 22.3101 23.1718 23.3011C23.6016 23.5034 24.0813 23.6854 24.581 23.8742C24.621 24.0967 24.681 24.3125 24.721 24.5282C27.6793 24.0765 30.5676 23.4764 33.2761 22.5528C41.6214 19.7211 46.3987 14.0308 46.0389 8.00336ZM25.8003 12.9655V12.7228C25.8003 11.0036 27.9291 9.56752 30.4777 9.56752C33.0263 9.56752 35.155 11.0036 35.155 12.7228V12.9655C35.155 14.6848 33.0263 16.1208 30.4777 16.1208C27.9192 16.1276 25.8003 14.6915 25.8003 12.9655Z" fill="#00A19A"/>
<path d="M104.626 63.0726C103.736 61.9939 102.507 60.9758 101.368 59.9308C98.1495 59.2701 94.9813 58.4475 91.7231 57.8879C94.6115 60.7264 97.5399 63.5513 100.418 66.4032C102.557 68.5269 105.026 70.6372 106.885 72.8688C107.944 74.1431 109.773 76.9815 112.232 77.3523C118.088 78.2288 110.393 70.5765 109.773 69.781C108.014 67.5628 106.445 65.284 104.626 63.0726Z" fill="#161613"/>
<path d="M192.806 75.7478C192.037 74.3589 189.098 73.7993 187.789 72.6801C186.67 71.7228 185.32 70.8868 184.071 70.017C182.812 69.1338 181.882 68.0753 180.603 67.2123C179.334 66.3494 178.474 65.2976 177.215 64.4481C175.816 63.5042 174.317 62.594 173.057 61.5557C171.898 60.6051 170.369 59.8365 169.09 58.96C167.64 57.9622 166.311 56.8902 164.942 55.8452C159.875 51.9685 152.659 49.7167 147.752 45.786C146.842 45.0512 145.533 44.4916 144.413 43.9118C143.754 43.5747 143.164 43.2038 142.584 42.8263C142.624 42.8128 142.664 42.8061 142.704 42.7926C139.676 41.5723 136.728 40.2576 133.829 38.9226C129.502 36.9337 125.174 34.9718 120.727 33.1042C116.829 31.4659 113.331 29.4028 109.263 27.9533C106.245 31.4052 102.637 34.5942 97.9696 37.1427C94.5915 38.9833 90.7637 40.5272 86.516 41.2352C81.6388 42.0509 76.4517 42.9679 71.5944 41.6936C63.6389 39.5968 58.112 35.3359 58.7816 29.3691C59.4113 23.8069 64.2186 19.1279 69.5956 15.0422C68.786 14.7591 67.9365 14.5366 67.037 14.3411C65.208 13.9433 63.1792 12.932 61.5001 12.3252C58.0221 11.0577 54.2042 10.188 50.4663 9.39239C49.317 9.14968 48.1976 8.80583 47.1082 8.41479C47.2182 13.8961 43.4203 19.3302 36.2443 22.2765C32.7063 23.7328 28.8485 24.5823 24.8607 25.189C25.0306 25.9576 25.2305 26.7262 25.4604 27.4948C25.9301 29.0118 25.7202 30.5692 26.18 32.0862C26.5997 33.475 27.6292 34.8572 28.5686 36.1112C29.628 37.527 30.9973 38.8148 32.4165 40.0688C33.4559 40.9992 35.065 41.6262 36.1943 42.5094C37.6035 43.6084 39.5225 44.3163 41.1915 45.2197C42.8406 46.1164 44.4997 46.9052 46.4886 47.4379C48.8472 48.0716 51.096 48.9683 53.4846 49.5414C55.9632 50.1347 58.2819 51.1932 60.8105 51.6247C63.2391 52.0359 65.3779 52.8922 67.7066 53.4855C69.8055 54.0181 71.8943 54.5575 73.9731 55.1238C78.7404 55.8452 83.4478 56.2295 88.305 56.6812C93.8819 57.2004 99.109 58.8454 104.566 59.7758C107.094 60.2073 109.713 60.5175 112.132 61.1917C114.42 61.8254 116.629 62.5671 118.958 63.1266C119.068 63.1536 119.138 63.1941 119.198 63.248C121.786 63.6795 124.405 64.0301 127.023 64.2189C129.492 64.3942 131.95 64.6166 134.399 64.9133C136.818 65.2099 138.807 66.0864 141.115 66.4909C145.543 67.273 149.521 69.1001 153.878 70.1047C158.166 71.0958 162.433 72.4307 166.911 72.9633C175.326 73.9611 184.141 73.5027 191.987 76.1456C192.397 76.2872 192.986 76.0714 192.806 75.7478Z" fill="#00A19A"/>
<path d="M117.329 64.9942C117.049 64.3335 116.539 63.7267 116.07 63.1132C114.39 62.6143 112.731 62.0749 110.992 61.6771C108.904 61.1984 106.735 60.8883 104.596 60.531C105.415 61.4951 106.155 62.4794 106.935 63.4637C108.494 65.4189 110.353 67.2797 112.212 69.1135C113.981 70.8596 115.51 72.7878 117.199 74.5879C117.879 75.3161 119.638 77.878 121.307 77.8443C126.514 77.7431 121.616 72.208 120.857 70.8461C119.757 68.8708 118.178 67.037 117.329 64.9942Z" fill="#161613"/>
<path d="M29.4785 11.3948H29.2986C28.1492 11.3948 27.1098 12.0555 27.1398 12.851C27.1798 13.7611 28.1292 14.4016 29.4785 14.4285C30.6478 14.4487 31.6372 13.7544 31.6372 12.9723C31.6372 12.9521 31.6272 12.9319 31.6272 12.9116C31.6272 12.8914 31.6372 12.8712 31.6372 12.851C31.6272 12.0555 30.6478 11.3948 29.4785 11.3948Z" fill="#161613"/>
</svg>
