<svg width="77" height="33" viewBox="0 0 77 33" fill="none" xmlns="http://www.w3.org/2000/svg">
<path d="M0.809908 17.6766C5.16156 19.1803 8.97953 21.3362 13.1434 23.0642C17.6081 24.9107 21.9241 26.88 26.3096 28.7946C29.1897 30.049 32.0798 31.3033 35.049 32.4625C36.3042 32.0194 37.4789 31.5163 38.8449 31.1598C41.836 30.3635 44.8026 29.082 47.5608 27.9642C50.7173 26.6809 53.2296 24.9181 56.0434 23.3279C58.8672 21.7375 61.7231 20.3761 64.3352 18.5922C67.0566 16.7331 69.5471 14.7615 71.8664 12.6634C73.8686 10.8514 75.0743 8.29167 75.8639 6.13356C76.2636 5.04435 77.04 2.54251 75.6925 1.65151C71.8008 -0.908271 63.7387 2.73303 59.9298 3.7122C56.6892 4.54453 53.498 5.32247 50.3794 6.37616C46.2545 7.76954 42.0564 8.82648 37.7489 9.93163C34.1993 10.8477 30.6017 11.9935 26.8985 12.52C25.1617 12.7653 23.536 13.1309 21.8705 13.5307C19.8959 14.0007 17.6573 14.0281 15.6215 14.3571C11.4699 15.0361 7.15214 15.0356 2.84507 15.1091C2.19333 15.9647 1.51168 16.8273 0.809908 17.6766Z" fill="#115B56"/>
</svg>
