<svg width="62" height="54" viewBox="0 0 62 54" fill="none" xmlns="http://www.w3.org/2000/svg">
<path d="M61.2872 10.0455C61.2472 9.47246 61.1972 8.89938 61.1472 8.33979C60.9573 6.32391 60.5376 4.14623 59.1184 2.34609C58.6087 1.69886 57.3594 0.0875014 56.0701 0.00659657C54.6609 -0.0810503 54.531 0.754968 54.1112 1.48311C53.6914 2.21125 53.6614 3.12817 53.2117 3.90351C52.622 4.91482 51.5126 6.06098 50.4033 6.83631C49.6937 7.32849 49.034 7.84088 48.3744 8.36002C52.4321 9.82979 57.0695 10.5377 61.2872 10.0455Z" fill="#115B56"/>
<path d="M50.1633 26.7992C52.1922 27.9521 54.311 28.7881 56.6397 29.287C57.0195 28.606 57.3893 27.9184 57.7591 27.2104C58.8185 25.1676 59.758 22.909 60.3376 20.7786C60.5475 20.0032 60.5475 19.2077 60.5875 18.4256C60.6375 17.266 61.3371 16.1805 61.397 15.0344C61.477 13.632 61.427 12.196 61.3271 10.7667C56.8396 11.2589 51.9323 10.497 47.6647 8.93286C46.1356 10.1666 44.6364 11.4072 42.8275 12.4994C40.9985 13.6051 38.9796 14.5355 36.9907 15.5063C38.1401 17.3199 39.4893 19.0998 41.1584 20.6302C43.617 22.8956 46.9851 24.9923 50.1633 26.7992Z" fill="#00A19A"/>
<path d="M4.22916 49.1427C6.75773 50.99 11.5151 53.134 15.253 53.5116C19.9403 53.9768 25.917 53.0801 30.2945 51.853C34.4022 50.7001 38.0601 48.9539 41.1584 46.8099C47.3849 42.5018 51.4326 37.4115 55.0506 31.9706C55.0606 31.9571 55.0706 31.9504 55.0806 31.9369C55.4803 31.2964 55.8701 30.6492 56.2399 29.9885C54.2211 29.5637 52.3121 28.903 50.5631 27.9658C47.135 26.1252 43.3372 23.8801 40.7386 21.4867C38.9196 19.8147 37.3405 17.9673 35.9913 16.0054C35.6215 16.1941 35.2417 16.3762 34.8819 16.5717C32.0235 18.0954 29.1352 19.5585 26.2468 21.0552C23.4883 22.4913 20.3201 23.6037 17.3218 24.7903C15.7027 25.4375 14.0236 25.9837 12.4745 26.7118C12.4545 26.7253 12.4345 26.732 12.4146 26.7455C6.87767 30.811 1.21086 35.7192 0.851065 41.3623C0.70115 44.0457 1.42073 47.0931 4.22916 49.1427Z" fill="#115B56"/>
</svg>
