<svg width="12" height="13" viewBox="0 0 12 13" fill="none" xmlns="http://www.w3.org/2000/svg">
<path d="M10.262 4.46767C9.91505 2.97879 9.02736 1.64999 7.64164 1.10179C7.15804 0.911527 6.5906 0.930534 6.02662 1.07693C5.98724 1.07728 5.9547 1.066 5.91532 1.06635C4.01539 1.04637 2.63876 2.282 1.86324 3.8945C1.02044 4.98169 0.581143 6.36875 0.87704 7.58471C0.809804 8.35216 0.872002 9.08601 1.06738 9.68662C1.49342 10.9477 2.74932 12.5165 4.23143 12.4476C4.54409 12.4355 4.82385 12.3727 5.09882 12.2915C6.19234 12.5504 7.36864 12.4819 8.47393 11.9878C11.5912 10.5766 12.2928 6.93067 10.262 4.46767Z" fill="#161613"/>
</svg>
