<svg width="115" height="85" viewBox="0 0 115 85" fill="none" xmlns="http://www.w3.org/2000/svg">
<path d="M82.8162 33.0383C74.6052 30.6795 61.8569 35.9328 58.9452 44.4847C57.0494 41.3254 54.0645 39.6726 50.7929 37.0679C47.8574 34.7311 43.0097 32.5553 39.1256 33.4451C28.8996 35.7936 20.3176 43.4489 18.3876 53.9959C17.5903 58.3378 19.3845 64.3754 21.3835 68.1986C23.1443 71.5606 25.3243 75.929 28.7607 77.8001C31.0144 79.0309 36.3407 79.553 38.9664 78.8714C44.4582 77.4459 49.7757 75.957 54.5928 72.9204C57.9862 70.7863 61.2802 66.1023 62.2369 62.2224C61.8993 63.583 66.556 65.8973 67.8486 66.6572C69.7818 67.7936 71.8914 68.2032 74.0856 68.4823C79.0167 69.1168 83.9774 66.5956 88.2537 64.479C92.5115 62.3672 94.3321 58.4702 95.6716 54.1258C98.4578 45.0144 91.3477 35.4915 82.8162 33.0383ZM35.2997 68.1291C26.2987 67.0609 28.7466 47.6359 37.8964 50.5701C41.1377 50.5873 44.3263 52.9866 45.4808 56.6738C47.3706 62.7754 41.5315 68.87 35.2997 68.1291ZM82.1511 57.2406C77.6848 58.321 72.9588 55.5116 73.4097 50.5195C73.6985 47.336 75.5053 45.2486 77.9426 44.2212C77.7254 44.0308 77.6616 43.6329 77.9842 43.4308C86.8158 38.0297 91.6062 54.964 82.1511 57.2406Z" fill="#05B6B7"/>
<path d="M105.392 28.086C105.259 28.1405 105.152 28.1878 105.039 28.2467C105.039 28.2467 105.037 28.2375 105.035 28.2282C103.689 28.7848 102.69 30.2973 101.594 31.2432C100.869 31.8752 100.377 32.7137 99.7155 33.3984C98.8158 34.3425 97.7853 35.1626 96.8506 36.0861C95.5394 37.3837 97.5571 39.4159 98.8683 38.1183C100.15 36.8581 101.745 35.7433 102.767 34.2444C103.309 33.4426 104.08 32.8773 104.793 32.2384C105.154 31.9178 105.421 31.5424 105.743 31.2221C105.969 31.1436 106.167 30.9935 106.348 30.7787C106.392 30.7575 106.415 30.7318 106.459 30.7106C107.95 30.1064 106.886 27.4911 105.392 28.086Z" fill="#161613"/>
<path d="M96.9803 23.4307C96.3781 25.2548 94.9912 26.6411 94.3212 28.394C93.6557 30.1259 92.6999 31.2721 92.5996 32.4823C92.5176 33.4214 93.5363 34.1142 94.3961 33.891L94.7012 33.8118C95.598 33.579 95.8687 32.7587 95.6794 32.0677C95.7229 32.0071 95.7708 31.9256 95.853 31.7859C96.3503 30.9265 96.6637 29.9668 97.1751 29.1236C98.1407 27.521 99.158 26.0036 99.7396 24.2144C100.317 22.4462 97.553 21.6833 96.9803 23.4307Z" fill="#161613"/>
<path d="M88.2358 19.4736C88.2521 22.5779 85.4334 24.9872 85.8086 28.0675C86.0266 29.8958 88.8047 29.1549 88.5823 27.3475C88.5074 26.7551 89.0548 26.0505 89.3331 25.5638C89.6593 24.9956 89.8731 24.2986 90.1201 23.6917C90.6643 22.3663 91.1104 20.9675 91.1089 19.5173C91.1039 17.6732 88.2308 17.6295 88.2358 19.4736Z" fill="#161613"/>
<path d="M33.6794 23.4508C32.9861 21.8446 32.0484 20.361 31.3692 18.7709C30.6427 17.0746 28.1675 18.5263 28.8892 20.2041C29.4855 21.5888 30.315 22.8833 30.9345 24.2817C31.7032 26.0263 32.4163 27.7853 32.9216 29.6179C33.4126 31.3951 36.1886 30.6844 35.6953 28.898C35.1804 27.0283 34.4484 25.2348 33.6794 23.4508Z" fill="#161613"/>
<path d="M27.7983 30.5629C27.3247 29.4227 26.6946 28.402 25.9556 27.38C25.0453 26.1163 23.6509 25.1164 23.1416 23.6105C22.5514 21.8689 19.7753 22.5797 20.3679 24.3304C21.3962 27.3793 24.412 29.113 25.3807 32.2365C25.6145 32.9851 26.3416 33.4674 27.1275 33.2634L27.4326 33.1842C28.7917 32.8314 28.7025 31.1572 27.7983 30.5629Z" fill="#161613"/>
<path d="M22.9055 36.0073C22.2761 36.0918 21.407 35.291 20.9453 34.9569C20.113 34.3736 19.1868 33.9232 18.3867 33.3119C17.6821 32.7645 16.9614 32.2312 16.2408 31.6978C15.6413 31.2515 13.9913 30.9396 13.638 30.3011C12.7616 28.6733 10.2724 30.1089 11.1581 31.7343C11.7659 32.8594 12.8112 33.1604 13.9161 33.6532C15.2792 34.2665 16.409 35.4634 17.6582 36.2839C19.4482 37.4771 21.3578 39.0933 23.6278 38.7902C25.4558 38.5328 24.7173 35.764 22.9055 36.0073Z" fill="#161613"/>
<path d="M18.4766 41.4892C17.7335 41.5538 16.6704 41.0699 15.9622 40.8886C14.6758 40.5712 13.3552 40.312 12.1253 39.8319C10.0749 39.0418 7.62306 38.4545 5.45147 38.1103C3.65111 37.8277 2.85573 40.5802 4.67698 40.8673C7.14549 41.2529 9.78156 41.9798 12.1088 42.8856C13.2945 43.3475 14.714 43.5317 15.9469 43.8334C16.8524 44.0523 17.4837 44.4312 18.4305 44.3532C20.2571 44.2047 20.3125 41.3384 18.4766 41.4892Z" fill="#161613"/>
</svg>
