<svg width="171" height="151" viewBox="0 0 171 151" fill="none" xmlns="http://www.w3.org/2000/svg">
<path d="M9.53586 65.6917C12.7745 63.3688 16.1503 61.8569 19.6496 60.9497C13.9272 58.2007 9.48094 54.0223 10.4964 46.8887C11.9236 36.8687 24.8781 36.7175 33.8803 37.2398C31.5611 33.3363 28.35 29.955 27.952 24.9382C27.6501 21.0896 26.8816 13.7361 30.9711 11.3445C35.0056 8.98037 41.5926 14.5333 44.9273 15.9353C47.617 17.0624 50.0459 19.0691 52.1867 21.4332C51.281 12.8289 51.8162 3.5374 59.6657 0.444808C65.5803 -1.87807 69.9579 5.46169 72.3182 9.40646C74.4041 12.8702 75.7352 16.6363 76.5449 20.5123C76.9016 19.2203 77.2996 17.942 77.7387 16.65C79.0836 12.719 83.2279 4.8844 88.6073 6.36885C93.4652 7.7021 95.9353 20.1137 96.7587 23.9898C96.9371 24.8145 97.0469 25.5979 97.1567 26.3814C100.533 18.5743 105.116 11.6469 111.47 13.3925C117.178 14.9594 117.069 26.7387 117.906 31.0821C118.276 33.0064 118.372 34.9307 118.317 36.8412C113.363 37.336 109.384 41.6244 109.384 46.6963V47.1636C109.384 52.5653 113.885 57.0737 119.278 57.0737C124.671 57.0737 129.172 52.5653 129.172 47.1636V46.71C129.172 42.243 126.098 38.4081 121.995 37.1986C128.994 29.8588 137.447 24.1822 147.19 29.2128C152.46 31.9343 150.045 39.5352 148.796 43.7137C147.753 47.1911 145.763 50.5861 144.24 53.8711C143.554 55.3556 142.401 56.8537 141.235 58.3519C145.146 55.8779 148.549 52.5654 153.462 52.5654C159.61 52.5654 164.811 60.826 167.583 65.3481C170.739 70.5162 169.888 75.7529 165.963 80.1513C163.946 82.4192 160.858 83.7112 158.032 84.5222C158.018 84.5222 158.004 84.5222 158.004 84.5359C164.92 88.4669 170.986 94.0474 170.396 102.061C170.094 106.184 163.246 108.782 159.87 109.208C157.565 109.497 155.63 109.318 153.558 108.809C156.165 112.534 158.224 116.506 158.265 120.946C158.306 125.633 160.584 138.347 155.452 141.165C149.139 144.642 142.017 138.058 137.132 134.732C131.19 130.691 127.539 124.465 124.301 118.156C124.369 121.303 124.726 124.561 124.603 126.87C124.342 131.461 123.422 136.395 121.981 140.752C120.609 144.917 115.93 153.466 110.139 150.319C103.648 146.8 97.6782 138.443 93.6025 132.382C91.4754 129.22 90.4325 125.468 89.9384 121.537C88.278 125.042 86.3156 128.341 84.0376 131.2C81.3479 134.581 75.0354 143.158 69.5736 141.646C67.7622 141.151 65.9508 139.515 65.4293 137.674C63.8786 132.231 62.0398 126.788 61.0105 121.221C60.3793 117.771 60.242 113.895 60.6949 110.115C56.6055 113.799 52.2141 117.166 47.4935 119.737C42.759 122.307 35.0056 124.121 30.5045 120.286C27.307 117.565 30.2026 108.562 30.9711 105.483C31.8082 102.088 33.1667 99.5316 34.6625 96.384C35.5682 94.4735 36.817 92.5079 37.9834 90.6936C24.7683 92.7004 10.2357 93.9099 1.32954 82.1581C-3.32253 76.0828 5.40526 68.6606 9.53586 65.6917ZM70.3284 42.8752C73.1553 42.8752 75.7078 41.6382 77.5055 39.7139C79.4404 37.8996 80.6755 35.343 80.6755 32.5116C80.6755 27.1373 76.1744 22.5741 70.7813 22.6015C68.0092 22.6153 65.3607 23.5774 63.3846 25.5567C61.4085 27.5359 60.4479 30.1887 60.4342 32.9652C60.4067 38.3669 64.9627 42.8752 70.3284 42.8752Z" fill="#00A19A"/>
<path fill-rule="evenodd" clip-rule="evenodd" d="M39.3066 36.8635C45.2423 32.1677 52.9191 30.5569 60.6232 30.6525C60.4176 31.5125 60.2942 32.3861 60.2942 33.2871C60.2668 38.6518 64.818 43.1292 70.178 43.1292C73.0019 43.1292 75.5517 41.9006 77.3475 39.9895C78.7595 38.6791 79.8013 36.9591 80.2537 35.0344C80.4045 35.0617 80.569 35.1026 80.7198 35.1299C89.0819 36.7953 97.6497 39.034 105.834 41.4365C107.259 41.8597 108.699 42.3375 110.124 42.8425C109.535 44.0984 109.192 45.4908 109.192 46.9377V47.4018C109.192 52.7666 113.689 57.244 119.076 57.244C122.997 57.244 126.451 54.8688 128.028 51.497C135.554 56.1929 142.408 61.9398 147.823 68.4102C156.884 79.2352 157.706 93.5274 151.359 105.758C143.532 120.856 126.547 118.508 112.263 116.993C95.1274 115.191 77.5531 108.584 61.528 102.51C47.0107 97.0083 33.4668 89.1046 28.2713 73.7066C24.241 61.776 29.5325 44.5898 39.3066 36.8635Z" fill="#303030"/>
<path d="M118.483 43.3564C121.134 43.3564 123.342 45.4644 123.342 47.9966V48.4341C123.342 50.9663 121.134 53.0743 118.483 53.0743C115.831 53.0743 113.624 50.9663 113.624 48.4341V47.9966C113.624 45.4777 115.831 43.3564 118.483 43.3564Z" fill="#115B56"/>
<path d="M71.7623 27.6584C74.2099 27.6584 76.2474 29.9285 76.2474 32.6555V33.1267C76.2474 35.8537 74.2099 38.1238 71.7623 38.1238C69.3147 38.1238 67.2771 35.8537 67.2771 33.1267V32.6555C67.2771 29.9428 69.3147 27.6584 71.7623 27.6584Z" fill="#115B56"/>
</svg>
