<svg width="72" height="44" viewBox="0 0 72 44" fill="none" xmlns="http://www.w3.org/2000/svg">
<path fill-rule="evenodd" clip-rule="evenodd" d="M1.13531 11.6426C1.14902 11.8473 1.13528 12.0521 1.14899 12.2569C1.98521 21.785 12.4996 31.5589 20.3408 36.0636C31.8696 42.6978 47.5521 46.6292 60.438 41.9607C72.3918 37.6198 77.5051 23.4641 63.3031 18.3178C62.4395 18.0038 61.5758 17.7581 60.7259 17.5533C60.2598 17.1028 59.6841 16.9663 59.0535 16.9254C58.8067 16.9117 58.56 16.98 58.3269 17.0892C55.3659 16.6524 52.4186 16.666 49.4301 16.8162C49.0737 16.7479 48.7036 16.7616 48.3472 16.8708C47.9771 16.8844 47.6069 16.9117 47.2368 16.939C47.2094 16.939 47.1957 16.9254 47.1682 16.9254C47.0723 16.9254 46.9764 16.939 46.8941 16.9527C44.55 17.0892 42.1784 17.253 39.7794 17.253C38.8061 17.253 37.8739 17.2121 36.9966 17.1302C36.9418 17.0209 36.8732 16.9117 36.7909 16.8162C35.3516 16.6251 33.9122 16.2702 32.4865 15.6422C32.2946 15.7651 32.1301 15.9152 32.0067 16.1064C29.0594 15.1235 26.4959 13.5127 23.8228 11.3696C23.8365 11.1921 23.8228 11.0147 23.7954 10.8372C22.9454 10.1683 22.1778 9.37658 21.3827 8.61214C21.1085 8.53024 20.8206 8.48929 20.5327 8.54389C18.9974 7.19248 16.8315 5.32234 14.4873 3.71156C14.4873 3.64331 14.501 3.5887 14.5147 3.52045C14.5147 3.38394 14.4736 3.28839 14.4599 3.16553C13.5552 2.483 12.6367 1.82777 11.7456 1.28175C11.4166 1.2954 11.1014 1.36365 10.8272 1.52746C7.09849 -0.247128 3.45201 -0.506494 1.40945 3.46585C-0.0162201 6.18233 0.134598 8.98071 1.13531 11.6426Z" fill="#00A19A"/>
<path d="M60.298 24.2374C61.341 24.3473 62.4525 23.6189 62.9191 22.6979C63.4955 21.5434 63.5092 20.3613 63.3034 19.1105C63.1524 18.1759 62.0683 17.6536 61.2037 17.8048C61.1489 17.7223 61.094 17.6398 61.0253 17.5574C60.5588 17.035 59.9275 16.8976 59.2551 16.8426C58.5003 16.7876 57.6221 17.4337 57.4849 18.1896C57.0594 20.54 57.3064 23.9212 60.298 24.2374ZM48.9492 23.7151C49.7177 23.6601 50.5685 23.2065 50.7195 22.3681C50.9665 21.0623 51.0076 19.7703 51.0076 18.437C51.0076 16.7464 49.1413 16.2653 48.0709 16.9938C47.8376 16.8839 47.5906 16.8289 47.3436 16.8289C46.2458 16.8289 45.642 17.6673 45.5047 18.6707C45.2303 20.9111 46.2046 23.9212 48.9492 23.7151ZM31.3564 19.7428C31.5623 20.7324 32.317 21.6946 33.3188 21.942C35.9261 22.5742 37.1337 19.8802 37.2984 17.7498C37.367 16.7464 36.4064 15.908 35.4595 15.908C35.3223 15.908 35.1988 15.9217 35.089 15.9492C34.9518 15.7705 34.7734 15.6056 34.5538 15.4681C33.7305 14.9871 32.4954 15.2345 32.0426 16.1279C31.4662 17.2687 31.0957 18.4783 31.3564 19.7428ZM17.8668 14.7946C18.402 15.6881 19.4861 15.9217 20.3781 15.4544C21.819 14.7122 23.1364 13.5714 23.7814 12.0457C24.1793 11.1248 24.0695 10.0802 23.1227 9.53036C22.9854 9.44789 22.8345 9.40665 22.6698 9.36541C22.6561 9.33792 22.6424 9.31044 22.6287 9.28295C22.1483 8.472 20.9407 8.05965 20.1173 8.62319C18.0726 10.0252 16.3984 12.3206 17.8668 14.7946ZM10.525 7.68854C12.954 7.60607 14.587 5.72302 14.6419 3.33142C14.6693 2.30055 13.9832 1.70953 13.201 1.58583V1.57208C12.5148 0.884834 11.2935 0.843599 10.6074 1.57208C9.6193 2.61669 9.05667 3.96369 8.76849 5.36567C8.52148 6.479 9.27624 7.72977 10.525 7.68854Z" fill="white"/>
</svg>
