<svg width="232" height="43" viewBox="0 0 232 43" fill="none" xmlns="http://www.w3.org/2000/svg">
<path d="M23.3651 34.0588C23.2933 33.8918 23.2763 33.7057 23.3166 33.5281C23.367 33.3302 23.3728 33.1233 23.3336 32.9229C23.2633 32.6451 22.9362 32.5186 22.6914 32.4764C22.2576 32.3995 21.7802 32.7567 21.3683 32.5087C21.2714 32.4516 21.3659 32.0474 21.361 31.968C21.3231 31.6371 21.3117 31.3037 21.3271 30.9709C21.4242 30.4051 21.472 29.8316 21.4701 29.2571C21.4434 28.7809 21.521 28.3097 21.4967 27.8384C21.4798 27.5284 21.4216 27.2308 21.4265 26.9183C21.4393 26.5887 21.4692 26.26 21.5161 25.9336C21.5678 25.2479 21.5783 24.5596 21.5476 23.8726C21.5476 23.0492 21.521 22.2257 21.5403 21.4023C21.5788 20.5992 21.5601 19.7944 21.4846 18.994C21.4232 18.1366 21.4079 17.2763 21.4386 16.4171C21.4516 15.6398 21.4233 14.8624 21.3538 14.0882C21.2544 13.2648 21.0824 12.4538 21.0388 11.6229C20.9927 10.7821 20.794 9.95372 20.7504 9.11042C20.7285 8.68383 20.7819 8.26716 20.7988 7.84304C20.8061 7.6248 20.794 7.40902 20.7867 7.19324C20.8989 7.24916 21.023 7.27558 21.1478 7.27011C21.2981 7.24807 21.4415 7.19123 21.567 7.10396C21.8214 6.91794 21.7997 6.48885 21.819 6.21108C21.8529 5.7572 22.0129 4.94864 21.4143 4.81471C21.2059 4.7676 20.9806 4.92632 20.7552 4.89906C20.4994 4.859 20.2409 4.83992 19.9822 4.842C19.3982 4.86433 18.8215 4.83954 18.2374 4.86433C17.6389 4.89162 17.0694 4.89162 16.4709 4.9784C15.8969 5.10919 15.3092 5.16667 14.7213 5.14953C14.0927 5.02392 13.4434 5.05886 12.8312 5.25124C12.2132 5.51166 12.3925 6.32766 12.5234 6.83609C12.6009 7.13618 12.6785 7.32717 12.9911 7.40656C13.1971 7.45864 13.4418 7.33461 13.6478 7.33959C13.7964 7.32422 13.9464 7.34915 14.0825 7.41185C14.2187 7.47455 14.3362 7.57281 14.4232 7.6967C14.4866 7.94668 14.5095 8.20555 14.4911 8.46308C14.5129 8.75577 14.5008 9.04345 14.4959 9.33614C14.4862 9.97353 14.5202 10.611 14.5614 11.2459C14.7092 13.4781 14.9442 15.7028 15.109 17.935C15.189 19.0189 15.0945 20.0853 15.1187 21.1667C15.1308 21.7173 15.1963 22.2654 15.2229 22.8135C15.2471 23.3195 15.2132 23.8255 15.2375 24.329C15.2617 24.8349 15.3174 25.3359 15.3368 25.8443C15.3562 26.3975 15.2665 26.9406 15.2787 27.4912C15.2835 27.7045 15.3223 27.9154 15.3223 28.1286C15.3071 28.4047 15.2764 28.6796 15.2302 28.9521C15.1839 29.1511 15.1611 29.3551 15.1623 29.5597C15.2129 29.8468 15.2308 30.1389 15.2156 30.4302C15.1765 30.7706 15.1773 31.1145 15.218 31.4546C15.2908 31.963 15.2132 32.3946 14.6656 32.5186C14.1082 32.6451 13.4685 32.4293 13.008 32.8683C12.9915 32.8822 12.9808 32.902 12.9781 32.9236C12.9754 32.9453 12.9809 32.9672 12.9935 32.9849C13.2989 33.4487 12.8748 34.855 13.8708 34.5226C14.1252 34.4722 14.3873 34.4789 14.6389 34.5424C14.8132 34.5911 14.9942 34.6095 15.1744 34.597C15.8093 34.406 16.5823 34.6069 17.2415 34.6144C18.4121 34.6694 19.5792 34.7852 20.7383 34.9616C21.2399 35.0186 21.7585 34.9021 22.2431 35.0087C22.4105 35.0661 22.5876 35.0878 22.7635 35.0725C22.9394 35.0571 23.1104 35.005 23.2657 34.9194C23.4838 34.778 23.4281 34.2498 23.3651 34.0588Z" fill="white"/>
<path d="M36.1744 29.8078C36.189 29.5672 36.206 29.1654 35.9733 29.0116C35.685 28.8182 35.2924 28.8976 34.9652 28.8231C34.6599 28.7537 34.1971 28.5578 33.9063 28.786C33.5161 29.0935 33.5452 29.6689 33.0921 29.9194C32.6026 30.1897 31.8926 30.3187 31.5218 29.8152C31.2737 29.3743 31.1669 28.8653 31.2165 28.3593C31.2044 27.8583 31.2068 27.3549 31.1849 26.8539C31.1845 26.1726 31.2388 25.4924 31.3473 24.8201C31.3311 24.5539 31.2864 24.2902 31.214 24.0339C31.1729 23.7387 31.2092 23.4461 31.1947 23.1509C31.2073 22.5017 31.2599 21.8539 31.3522 21.2114C31.3885 20.6484 31.2577 20.078 31.3231 19.5224C31.3457 18.95 31.332 18.3767 31.2819 17.8061C31.3204 16.6027 31.4353 15.403 31.626 14.2147C31.7666 13.0342 31.7859 11.4717 32.9539 10.8293C33.4079 10.6264 33.9111 10.5677 34.3982 10.6606C34.752 10.7003 34.9071 10.9632 35.0234 11.2708C35.0913 11.4493 34.9992 11.6651 35.0573 11.8536C35.0745 11.9264 35.1059 11.9948 35.1496 12.0549C35.1934 12.115 35.2485 12.1655 35.3118 12.2033C35.4669 12.2852 35.7092 12.2653 35.8376 12.3695C35.978 12.5 36.1516 12.5874 36.3386 12.6216C36.5255 12.6559 36.7181 12.6355 36.8941 12.5629C37.1971 12.4141 37.3812 11.8263 37.483 11.5361C37.6531 11.011 37.7422 10.4621 37.7471 9.90913C37.7762 9.42397 37.7056 8.93798 37.5399 8.48227C37.3743 8.02656 37.1172 7.61118 36.7851 7.26273C36.3589 6.89902 35.8968 6.58151 35.4063 6.31531C35.2704 6.17224 35.1134 6.05173 34.941 5.95816C34.5363 5.76355 34.0986 5.65069 33.6519 5.62579C32.8148 5.51535 31.9653 5.68784 31.2334 6.11687C30.4744 6.62478 29.8388 7.30249 29.3748 8.09855C29.1614 8.44986 28.9727 8.81621 28.8102 9.19483C28.5436 9.80743 28.1704 10.3928 27.8554 10.983C27.5941 11.4485 27.4068 11.9533 27.3005 12.4786C27.1866 13.0614 27.1284 13.6418 26.9879 14.2197C26.7331 15.5037 26.5559 16.8025 26.4572 18.1087C26.2182 20.3834 26.1316 22.6722 26.1979 24.959C26.2076 25.527 26.2754 26.0925 26.3191 26.6579C26.37 27.3127 26.3627 27.97 26.3724 28.6247C26.3845 29.6912 26.3821 30.8519 26.7916 31.8515C27.0082 32.3354 27.2543 32.8051 27.5283 33.2577C27.7064 33.633 27.9648 33.9627 28.2843 34.2226C28.6257 34.4496 29.0003 34.6195 29.3942 34.7261C29.8617 34.893 30.3373 35.0354 30.819 35.1526C31.7753 35.2798 32.747 35.1168 33.6131 34.6839C34.546 34.2845 34.9919 33.4214 35.4063 32.5261C35.8235 31.6757 36.0839 30.7543 36.1744 29.8078Z" fill="white"/>
<path d="M59.9431 7.96212C59.9169 7.48381 59.9197 7.0043 59.9515 6.52634C59.998 6.30111 60.0608 5.91258 59.7899 5.79156C59.4181 5.67262 59.0174 5.68853 58.6558 5.83661C58.0094 5.9861 57.3448 6.03732 56.6837 5.9886C55.4236 5.9886 54.1556 6.22791 52.8985 6.32083C51.4302 6.4306 49.9703 6.63047 48.5134 6.84445C47.1189 7.04997 45.763 7.35965 44.3554 7.48632C43.7117 7.54544 43.0818 7.58206 42.4381 7.60739C41.7643 7.63554 41.1179 7.77346 40.4523 7.84948C40.2621 7.85786 40.0739 7.89389 39.8936 7.95647C39.8844 7.78941 39.8559 7.62404 39.8087 7.46382C39.7758 7.34835 39.6087 7.42437 39.6416 7.53701C39.726 7.90728 39.7381 8.29089 39.6772 8.66593C39.6384 8.90836 39.6669 9.15703 39.7594 9.38381C39.8553 9.73816 39.885 10.1078 39.847 10.4733C39.8339 10.6573 39.8811 10.8405 39.9812 10.9941C40.099 11.1462 40.6851 10.9716 40.844 10.9576C41.1262 10.9053 41.4119 10.8742 41.6986 10.8646C41.9443 10.8899 42.1915 10.8956 42.4381 10.8815C42.6836 10.8421 42.9329 10.8336 43.1804 10.8562C43.4256 10.9139 43.6763 10.9441 43.928 10.9463C44.2649 10.904 44.6048 10.859 44.9417 10.8111C45.333 10.7105 45.735 10.6595 46.1386 10.6591L47.7821 10.8618C48.1981 10.9125 47.982 11.4784 47.9407 11.7289C47.9381 12.1086 47.9545 12.4882 47.9899 12.8663C47.9543 13.4997 47.9872 14.1331 47.9464 14.7637C47.8998 15.4676 47.8502 16.1573 47.8722 16.8639C47.9161 18.3222 47.9736 19.7693 47.9763 21.2304C47.982 24.0541 48.0364 26.8834 48.1844 29.7043C48.1854 30.1303 48.2082 30.556 48.253 30.9796C48.3696 31.4637 48.4339 31.9593 48.4449 32.4576C48.4146 32.8602 48.5161 33.2599 48.4805 33.6681C48.4695 33.7836 48.5679 33.9356 48.5815 34.0651C48.5909 34.2505 48.5809 34.4365 48.5516 34.6197C48.5502 34.634 48.5519 34.6483 48.5567 34.6618C48.5615 34.6752 48.5691 34.6874 48.5791 34.6974C48.5891 34.7074 48.6012 34.7149 48.6145 34.7195C48.6277 34.7241 48.6418 34.7256 48.6557 34.7239C50.0142 34.4029 51.3727 34.5212 52.7532 34.4987C53.1841 34.4889 53.612 34.4236 54.0269 34.3044C54.1778 34.2793 54.3191 34.2125 54.4355 34.1113C54.5519 34.01 54.6389 33.8782 54.687 33.7301C54.7886 33.2409 54.8263 32.7401 54.799 32.2408C54.7885 31.5849 54.8623 30.9402 54.8456 30.2842C54.8406 29.6826 54.8782 29.0814 54.958 28.4853C55.0265 27.8941 54.9361 27.3282 54.98 26.7426C55.0292 26.0754 55.2075 25.3998 55.1935 24.7269C55.1882 24.3919 55.1469 24.0597 55.1552 23.7219C55.1662 23.3446 55.24 22.9589 55.2839 22.5817C55.3263 21.9761 55.3237 21.3682 55.276 20.763C55.2755 19.9534 55.3174 19.1442 55.4016 18.3391C55.5167 16.8499 55.3498 15.3521 55.3331 13.8657C55.3252 13.2041 55.4016 12.5538 55.4293 11.8922C55.4403 11.6416 55.4319 11.3939 55.4482 11.1433C55.4594 10.9963 55.4898 10.8514 55.5387 10.7126C55.58 10.5944 55.9744 10.5634 56.0754 10.5437C56.3448 10.4949 56.6184 10.4741 56.8919 10.4818C57.1129 10.4606 57.3307 10.4134 57.5411 10.341C58.0861 10.2228 58.6286 10.4029 59.1653 10.2903C60.0991 10.0989 59.883 8.64338 59.9431 7.96212Z" fill="white"/>
<path d="M75.7053 24.4349C75.8349 22.3759 75.9917 20.3309 75.986 18.2663C75.9807 16.2604 75.9201 14.2293 75.7303 12.2346C75.5762 10.5919 75.1633 8.69495 74.0411 7.44053C73.7742 7.13591 73.4516 6.88729 73.0915 6.70857C72.8283 6.40163 72.4847 6.17774 72.1011 6.06321C71.3667 5.92632 70.6126 5.87047 69.8725 5.78105C68.7726 5.61399 67.6498 5.71059 66.5929 6.06321C65.5599 6.43111 64.6377 7.06534 63.9158 7.90432C63.1815 8.75362 63.1072 9.95493 62.9803 11.0166C62.85 11.6235 62.8148 12.2478 62.8758 12.866C63.0027 13.503 62.7743 14.3132 62.697 14.9585C62.6324 15.5083 62.6492 16.0649 62.7467 16.6096C62.7989 17.2874 62.8017 17.9681 62.755 18.6463C62.7853 20.004 62.8731 21.3618 62.9144 22.7196C62.9467 23.4346 62.9402 24.1509 62.8951 24.8652C62.8376 25.586 62.7524 26.3012 62.7576 27.0248C62.7936 28.1751 62.9207 29.3205 63.1376 30.4499C63.3076 31.5514 63.6299 32.6228 64.0946 33.632C64.5019 34.6042 65.1952 35.4233 66.0785 35.9759C66.5837 36.2045 67.1233 36.3434 67.6742 36.3866C68.1852 36.4962 68.7138 36.4867 69.2207 36.3587C71.3474 35.6826 72.8249 33.889 73.7934 31.939C74.329 30.8801 74.7541 29.7667 75.0618 28.6172C75.4093 27.2478 75.6248 25.8471 75.7053 24.4349ZM70.7228 27.9858C70.5577 28.958 70.2796 30.2655 69.4407 30.8745C68.6594 31.4417 67.8613 30.8187 67.6413 30.0197C67.3 28.7904 67.4515 27.4187 67.4458 26.1587C67.4406 24.7311 67.4102 23.3063 67.3799 21.8814C67.3496 20.4734 67.2618 19.0514 67.3387 17.6461C67.3753 16.9077 67.3652 16.1677 67.3084 15.4307C67.2503 14.9395 67.2291 14.4445 67.2451 13.95C67.2697 13.679 67.1432 13.4443 67.1573 13.1761C67.2115 12.8118 67.24 12.4439 67.2425 12.0754C67.2038 11.6452 67.0773 11.2289 67.3966 10.8881C67.7405 10.5192 68.1833 10.0164 68.7117 9.96331C69.2067 9.95634 69.7008 10.0098 70.1835 10.1226C70.1995 10.1246 70.2147 10.1312 70.2274 10.1416C70.24 10.1519 70.2496 10.1656 70.2551 10.1812C70.3227 10.1804 70.389 10.2009 70.4448 10.2399C70.4718 10.26 70.4944 10.2857 70.5111 10.3153C70.5512 10.3396 70.5804 10.3788 70.5927 10.4247C70.605 10.4705 70.5994 10.5195 70.577 10.5612C71.2538 11.1227 71.386 12.3492 71.3527 13.1538C71.3171 14.0142 71.2292 14.8579 71.2262 15.7212C71.2235 16.618 71.2319 17.5148 71.2868 18.4116C71.3629 19.2305 71.3868 20.0536 71.3584 20.8757C71.3035 21.725 71.1932 22.5659 71.0913 23.4096C71.0139 23.8464 70.9817 24.2902 70.9951 24.7339C71.0317 24.9797 71.0436 25.2287 71.0307 25.477C70.9293 26.3123 70.8629 27.1589 70.7228 27.9858Z" fill="white"/>
<path d="M12.143 11.4194C11.8982 9.63862 10.597 7.97689 9.22297 6.94018C8.51609 6.38624 7.67188 6.04439 6.78514 5.95304C5.81874 5.82584 4.84309 5.78766 3.86998 5.83897C2.90552 5.91091 1.94349 6.06716 0.97903 6.12669C0.705591 6.1271 0.439583 6.21755 0.220548 6.3846C0.021842 6.61777 0.121197 6.9625 0.109079 7.24278C0.107391 7.26322 0.113288 7.28356 0.1256 7.29977C0.137913 7.31598 0.155743 7.32688 0.175558 7.33031C0.195373 7.33373 0.215727 7.32944 0.232587 7.31828C0.249448 7.30712 0.261584 7.2899 0.266591 7.27003C0.110283 8.20294 0.0211907 9.14629 3.05176e-05 10.0925C0.0242665 11.1937 0.155122 12.2925 0.244779 13.3912C0.448334 15.8515 0.627657 18.297 0.603426 20.7698C0.593732 21.8735 0.705201 22.9747 0.768206 24.0759C0.836057 25.2267 0.67612 26.3899 0.71005 27.5482C0.741551 28.6916 0.666427 29.8225 0.622808 30.9634C0.61433 32.1217 0.67259 33.2795 0.797287 34.4308C0.799793 34.4486 0.808058 34.4652 0.820781 34.4777C0.833503 34.4903 0.84996 34.4982 0.867562 34.5002C1.34097 34.6052 1.82803 34.6303 2.3094 34.5746C2.60989 34.5126 2.90795 34.4481 3.20843 34.3861C3.51624 34.3451 3.82615 34.3228 4.13654 34.3191C4.51216 34.2844 4.88773 34.2398 5.26577 34.2249C5.51779 34.215 5.91036 34.2671 6.08728 34.0314C6.27312 33.7296 6.3597 33.3751 6.33442 33.0195C6.35142 32.4441 6.4556 31.8662 6.52105 31.2958L6.72216 29.5919C6.79485 28.9669 6.70763 28.3443 6.78032 27.7218L6.87484 26.9306C6.88843 26.728 6.87539 26.5245 6.83605 26.3254C6.77548 25.7748 6.90633 25.1994 6.87484 24.6414C6.84334 24.0933 6.90874 23.565 6.84576 23.0144C6.81427 22.7391 6.76336 22.4663 6.71975 22.1934C6.66643 21.871 6.76095 21.561 6.72458 21.2485C6.6955 21.0054 6.55254 20.7053 6.75607 20.5143C6.93117 20.3791 7.12359 20.2689 7.32798 20.1869C7.70419 19.9835 8.05972 19.7426 8.38939 19.4677C9.23345 18.8917 9.94187 18.1319 10.4637 17.2429C10.953 16.3004 11.3868 15.3289 11.7626 14.3337C12.1292 13.4108 12.2601 12.408 12.143 11.4194ZM7.08078 13.974C7.04306 14.4748 6.91058 14.9633 6.69067 15.4125C6.47299 15.7411 6.22989 16.0513 5.96368 16.3402C5.72861 16.5981 5.2391 17.2231 4.78838 17.3421C4.7593 17.0842 4.73264 16.8263 4.71086 16.5757C4.67937 16.2236 4.64541 15.8466 4.58968 15.4721C4.58485 15.4398 4.58243 15.4076 4.57755 15.3753C4.56789 15.3108 4.55819 15.2489 4.55094 15.1893C4.56991 14.8753 4.56586 14.5603 4.53882 14.2468C4.48791 13.9046 4.40793 13.5673 4.35221 13.2275C4.29405 12.8679 4.18743 12.5231 4.14866 12.1585C4.11473 11.8262 4.09777 11.4938 4.05172 11.1639C4.01858 10.8436 3.96269 10.5261 3.88452 10.2141C3.88452 10.095 3.88452 9.97842 3.88694 9.85937C3.89178 9.80482 3.89906 9.75274 3.90391 9.69814C3.95786 9.29111 3.98781 8.88114 3.99357 8.47044C4.35244 8.46207 4.70953 8.52439 5.04528 8.65399C5.3407 8.82661 5.61416 9.0357 5.8595 9.27654C6.25825 9.63066 6.6087 10.0377 6.90149 10.4868C7.52426 11.5633 7.28194 12.8034 7.08078 13.974Z" fill="white"/>
<path d="M93.7298 34.3794C93.6064 33.7842 93.4804 33.1914 93.4053 32.5862C93.3822 32.2831 93.3417 31.9817 93.284 31.6834C93.2019 31.3461 93.1365 31.0039 93.0759 30.6616C92.8527 29.4041 92.746 28.1293 92.5765 26.8619C92.3458 25.5635 92.0505 24.2779 91.6919 23.0102C91.5513 22.4174 91.4714 21.8246 91.3576 21.2294C91.2435 20.7043 91.0912 20.1887 90.9022 19.6867C90.8367 19.4982 90.3883 18.8409 90.5771 18.6525C90.723 18.5086 90.9746 18.5383 91.1565 18.5111C91.2729 18.4937 91.4327 18.3027 91.525 18.2308C91.9 17.9686 92.2556 17.6784 92.5888 17.3627C92.9072 17.0048 93.1776 16.6053 93.393 16.1747C93.9047 15.2 94.0136 14.0715 94.1418 12.9852C94.1809 12.5262 94.1417 12.0638 94.0259 11.6186C93.9143 11.1225 93.8392 10.6265 93.689 10.1404C93.5927 9.71691 93.4101 9.31888 93.1532 8.97219C92.8365 8.57294 92.5001 8.19049 92.1452 7.82634C91.4641 7.18785 90.6579 6.70429 89.78 6.40768C88.874 6.12522 87.9403 5.94556 86.9958 5.87196C85.9704 5.73105 84.9348 5.68291 83.9011 5.72808C83.3592 5.79335 82.8131 5.8141 82.2681 5.79011C81.7761 5.73803 81.2842 5.82234 80.7923 5.77026C80.7712 5.76823 80.7501 5.77457 80.7334 5.78796C80.7167 5.80135 80.7057 5.82077 80.7027 5.8422C80.6904 5.93646 80.6711 6.02821 80.6517 6.11997C80.6432 6.10561 80.6305 6.09427 80.6155 6.08749C80.6004 6.08072 80.5837 6.07882 80.5675 6.08207C80.5514 6.08532 80.5366 6.09355 80.5252 6.10565C80.5138 6.11775 80.5063 6.13314 80.5037 6.14973L80.3487 7.45928C80.3468 7.48056 80.3531 7.50175 80.3663 7.51837C80.3794 7.53499 80.3984 7.54573 80.4192 7.54831C80.44 7.55089 80.4609 7.54511 80.4776 7.5322C80.4943 7.51929 80.5054 7.50026 80.5086 7.47914C80.5072 7.49362 80.5097 7.50821 80.516 7.52127C80.3223 9.88246 80.5788 12.2758 80.6566 14.637C80.7001 15.9441 80.729 17.2486 80.7339 18.5582C80.7365 19.1956 80.7387 19.8355 80.7413 20.4729C80.744 21.0806 80.8481 21.6957 80.8793 22.3058C80.9447 23.5657 80.9328 24.8306 80.9618 26.093C81.0491 27.2619 81.2216 28.4226 81.4779 29.5653C81.5857 30.1663 81.6199 30.7787 81.5798 31.3883C81.4753 31.8876 81.4435 32.3999 81.4854 32.9087C81.524 33.1722 81.5191 33.4404 81.4709 33.7023C81.4797 33.9624 81.5346 34.2187 81.633 34.4588C81.6482 34.6999 81.6498 34.9417 81.6378 35.183C81.686 35.3702 81.7137 35.5624 81.7204 35.7559C81.6694 36.3859 82.142 36.5818 82.7016 36.5967C83.1403 36.6091 83.5743 36.6811 84.0078 36.7356C84.332 36.8144 84.6688 36.8228 84.9965 36.7604C85.5538 36.5694 85.4836 35.7138 85.5126 35.24C85.5758 34.1909 85.7888 33.1492 85.8714 32.1026C85.9127 31.5718 85.9127 31.0386 85.9368 30.5053C85.9819 30.0754 85.9957 29.6427 85.9781 29.2107C85.9575 28.6983 85.9916 28.1852 86.0796 27.6804C86.1023 27.2466 86.1007 26.8119 86.0747 26.3783C86.0774 25.9641 86.167 25.5573 86.16 25.1382C86.1155 24.6499 86.1358 24.1577 86.2201 23.6749C86.3638 23.2833 86.412 22.862 86.3607 22.4471C86.283 22.1411 86.2666 21.8223 86.3124 21.5097C86.3107 21.2922 86.2945 21.0751 86.2641 20.8598C86.4741 21.2123 86.6117 21.6047 86.6686 22.0131C86.7678 22.4496 86.9861 22.8663 87.1192 23.2979C87.5064 24.4769 87.8133 25.6818 88.0376 26.9041C88.2533 28.2037 88.5493 29.4909 88.75 30.793C88.8471 31.4131 88.9367 32.0331 89.0241 32.6557C89.0966 33.1542 89.3948 33.6602 89.3803 34.1661C89.3631 34.5096 89.421 34.8528 89.5498 35.1706C89.6662 35.431 90.0707 35.3938 90.2939 35.3963C91.1813 35.3855 92.0687 35.4244 92.952 35.5129C93.1461 35.5377 93.5239 35.6394 93.6767 35.4385C93.759 35.276 93.8063 35.0975 93.8155 34.9148C93.8246 34.7322 93.7955 34.5496 93.7298 34.3794ZM86.6567 16.4302C86.0838 16.7661 85.451 16.982 84.7953 17.0651C84.151 17.0924 83.9375 16.7129 83.8962 16.0879C83.8189 14.8825 83.7776 13.6896 83.6806 12.4767C83.6542 12.1345 83.6226 11.7897 83.5695 11.4475C83.5337 11.1652 83.5126 10.8813 83.5062 10.5968C83.4821 10.195 83.4118 9.79564 83.3973 9.39631C83.3865 9.38806 83.3779 9.37713 83.3723 9.36454C83.3668 9.35196 83.3645 9.33815 83.3657 9.32441L83.3753 9.24005L83.2954 9.23261C83.2746 9.22942 83.2558 9.21809 83.2431 9.20102C83.2304 9.18395 83.2247 9.16249 83.2272 9.14119C83.2297 9.11989 83.2402 9.10043 83.2566 9.08694C83.2729 9.07344 83.2938 9.06698 83.3147 9.06892L83.3946 9.07636L83.4043 8.99702C83.4073 8.97571 83.4184 8.95644 83.4351 8.94334C83.4519 8.93025 83.473 8.92436 83.494 8.92695C83.5149 8.92954 83.534 8.9404 83.5472 8.9572C83.5605 8.97399 83.5667 8.9954 83.5646 9.01684C83.5624 9.04241 83.5615 9.06808 83.562 9.09375H83.5646C84.5575 9.03131 85.5448 9.28524 86.3901 9.82042C87.2358 10.2995 87.8818 11.0761 88.2076 12.0055C88.7333 13.5953 88.1979 15.6663 86.6567 16.4302Z" fill="white"/>
<path d="M109.367 34.3719C109.278 34.0916 108.965 34.0892 108.723 34.0842C108.408 34.0768 108.093 34.1041 107.777 34.0966C107.446 34.0892 107.635 33.6824 107.61 33.4865C107.557 33.2307 107.538 32.9688 107.552 32.7077C107.613 32.245 107.634 31.7778 107.615 31.3113C107.581 30.6615 107.598 30.0316 107.603 29.3817C107.608 28.8584 107.61 28.3301 107.608 27.8068C107.603 27.2686 107.632 26.7279 107.593 26.1922C107.548 25.5981 107.54 25.0016 107.569 24.4065C107.606 23.7913 107.574 23.1887 107.569 22.5711C107.557 21.3508 107.772 20.1529 107.828 18.9351C107.855 18.3597 107.768 17.7992 107.782 17.2262C107.79 16.9683 107.819 16.7104 107.848 16.4549C107.879 16.1846 107.804 15.9018 107.809 15.6265C107.819 15.0486 107.935 14.4806 107.93 13.9003C107.925 13.2555 107.831 12.6131 107.782 11.9707C107.734 11.3382 107.683 10.7009 107.654 10.0659C107.63 9.53267 107.584 8.51824 108.141 8.23549C108.524 8.04204 109.21 8.32231 109.457 7.861C109.675 7.45674 109.593 6.39519 109.048 6.27368C108.872 6.2493 108.694 6.25348 108.519 6.28605C108.239 6.29958 107.96 6.32941 107.683 6.37538C107.353 6.45962 107.012 6.4914 106.673 6.4696C106.317 6.41141 105.955 6.4039 105.597 6.44728C104.928 6.54154 104.261 6.64817 103.588 6.71267C102.878 6.77964 102.194 6.67794 101.489 6.69035C101.15 6.70142 100.812 6.73122 100.476 6.77964C100.103 6.86366 99.7215 6.90114 99.3395 6.89125C99.1019 6.85776 98.8618 6.84779 98.6223 6.86149C98.3851 6.8813 98.155 6.98798 97.9222 7.02518L97.9292 6.96314C97.9313 6.94173 97.9252 6.92031 97.912 6.90349C97.8988 6.88667 97.8797 6.87579 97.8588 6.8732C97.8379 6.8706 97.8167 6.87649 97.8 6.88961C97.7833 6.90272 97.7723 6.92201 97.7693 6.94333L97.75 7.10703C97.7496 7.11619 97.7505 7.12537 97.7526 7.13428V7.13679C97.7547 7.14468 97.758 7.15221 97.7623 7.15911C97.7645 7.16158 97.7645 7.16655 97.7671 7.16902C97.9705 7.47659 97.9077 7.79156 98.0144 8.11895C98.1124 8.41364 98.1616 8.72295 98.1598 9.03415C98.0342 9.06784 97.9212 9.13858 97.8348 9.23751C97.8261 9.24896 97.8206 9.26253 97.8187 9.27686C97.8169 9.29118 97.8188 9.30576 97.8242 9.3191C97.8297 9.33244 97.8384 9.34408 97.8497 9.35284C97.861 9.3616 97.8743 9.36717 97.8884 9.36898L98.2081 9.40865C98.229 9.41059 98.2499 9.40412 98.2662 9.39063C98.2826 9.37714 98.2931 9.35768 98.2957 9.33638C98.2982 9.31508 98.2924 9.29361 98.2797 9.27654C98.267 9.25948 98.2482 9.24814 98.2274 9.24495L98.1062 9.23007C98.1266 9.21863 98.1477 9.20869 98.1695 9.20031C98.1775 9.21552 98.19 9.22776 98.2052 9.23528C98.2204 9.24281 98.2376 9.24523 98.2543 9.2422C98.2709 9.23917 98.2862 9.23085 98.298 9.21843C98.3097 9.206 98.3173 9.19011 98.3197 9.17301L98.3219 9.15566C98.5665 9.10605 98.8551 9.12344 99.0488 9.09861C99.3979 9.05396 99.7322 8.76629 100.096 8.88036C100.348 8.95974 100.224 9.3913 100.232 9.57234C100.269 9.90071 100.281 10.2317 100.265 10.5619C100.21 10.7873 100.184 11.0191 100.188 11.2515C100.248 11.591 100.261 11.9376 100.224 12.2807C100.171 12.8412 100.176 13.3844 100.168 13.9449C100.135 14.584 100.067 15.2207 99.965 15.8522C99.8729 16.974 99.8413 18.1 99.8705 19.2253C99.8657 19.8032 99.7831 20.3761 99.7831 20.954C99.7831 21.5964 99.8051 22.2362 99.7713 22.8761C99.7419 23.4367 99.708 23.9823 99.7129 24.5454C99.7155 24.8306 99.6742 25.1133 99.6667 25.3985C99.6597 25.7011 99.708 26.0012 99.701 26.3038C99.6839 26.909 99.6184 27.5042 99.6255 28.1119C99.647 28.7254 99.6382 29.3396 99.5991 29.9522C99.5455 30.5722 99.4537 31.1923 99.3615 31.8074C99.3154 32.1199 99.2574 32.4299 99.1968 32.7374C99.1652 32.8937 99.1313 33.0475 99.0949 33.2012C99.0246 33.5014 98.8964 33.427 98.6684 33.4517C98.4101 33.4903 98.1473 33.4852 97.8906 33.4369C97.7078 33.3912 97.5211 33.3638 97.3332 33.355C97.2122 33.3452 97.092 33.3824 96.9968 33.4592C96.9015 33.5361 96.8383 33.6468 96.8197 33.7692C96.8 33.9453 97.0086 34.0495 96.9866 34.2429C96.9625 34.4413 96.9383 34.6422 96.9164 34.8407C96.89 35.0713 96.8777 35.2946 97.0789 35.4409C97.4339 35.5987 97.8237 35.6569 98.2081 35.6095C98.8116 35.617 99.4124 35.5475 100.013 35.5128C100.609 35.4781 101.206 35.6343 101.802 35.6467C102.429 35.6591 103.062 35.6269 103.69 35.6095C104.361 35.5921 105.032 35.5798 105.703 35.6095C106.282 35.6368 106.847 35.7187 107.431 35.6988C107.938 35.6815 109.181 35.9518 109.413 35.3069C109.494 34.9979 109.477 34.6711 109.367 34.3719Z" fill="white"/>
<path d="M125.162 28.9851C125.155 28.8903 125.114 28.8014 125.047 28.7355C124.98 28.6696 124.892 28.6313 124.799 28.6279C124.268 28.5833 123.718 28.7321 123.204 28.5535C122.976 28.4741 122.807 28.4766 122.673 28.6924C122.414 29.114 122.455 29.7663 122.351 30.2425C122.284 30.5147 122.196 30.7809 122.087 31.0387C121.924 31.433 121.481 31.5496 121.115 31.6463C120.856 31.7228 120.58 31.7223 120.32 31.6451C120.061 31.5678 119.828 31.4168 119.649 31.2098C119.232 30.7139 118.985 30.0918 118.947 29.4389C118.755 28.1864 118.762 26.9141 118.571 25.6616C118.459 25.0558 118.384 24.4438 118.345 23.8287C118.345 23.2028 118.293 22.5781 118.19 21.9611C118.104 21.3409 118.088 20.7126 118.142 20.0886C118.159 19.4586 118.132 18.8261 118.115 18.1961C118.064 17.5857 118.058 16.9721 118.098 16.3608C118.169 15.839 118.198 15.3124 118.185 14.7859C118.171 14.2675 118.137 13.7541 118.105 13.2382C118.092 12.7104 118.165 12.184 118.321 11.6807C118.53 10.8672 118.954 9.74116 119.853 9.55761C120.143 9.49761 120.443 9.50099 120.732 9.56752C120.898 9.6082 121.052 9.68712 121.183 9.79818C121.324 9.9123 121.36 10.0785 121.472 10.2049C121.691 10.4977 121.806 10.8583 121.796 11.2268C121.77 11.4632 121.79 11.7025 121.854 11.9312C121.993 12.266 122.542 12.199 122.826 12.2288C122.919 12.2542 123.015 12.2595 123.11 12.2446C123.204 12.2296 123.295 12.1945 123.375 12.1418C123.456 12.089 123.525 12.0196 123.577 11.938C123.63 11.8565 123.665 11.7646 123.681 11.6682C123.772 11.1286 123.767 10.5767 123.667 10.0388C123.548 9.37943 123.31 8.74852 122.964 8.17863C122.392 7.10718 121.224 6.00099 119.964 5.98364C119.95 5.98359 119.936 5.98768 119.923 5.99544C119.911 6.00319 119.901 6.01431 119.895 6.02751C119.889 6.04071 119.886 6.05546 119.888 6.07007C119.889 6.08468 119.895 6.09857 119.904 6.11013C119.857 6.10018 119.814 6.08781 119.768 6.08037C119.028 5.92886 118.263 5.96764 117.542 6.19323C116.821 6.41881 116.166 6.8241 115.636 7.37253C114.903 8.16719 114.427 9.17231 114.272 10.2521C114.046 11.4787 113.897 12.7189 113.826 13.9649C113.654 16.6188 113.775 19.2825 113.858 21.9363C113.896 23.1938 113.928 24.4512 113.959 25.7062C113.976 26.3014 113.976 26.8992 114.01 27.4945C114.032 27.7174 114.073 27.9381 114.131 28.1542C114.182 28.4576 114.212 28.7643 114.221 29.0719C114.242 29.2832 114.285 29.4917 114.347 29.6944C114.415 30.0595 114.439 30.4319 114.417 30.803C114.45 31.0561 114.507 31.3053 114.587 31.5471C114.667 31.8869 114.761 32.2242 114.866 32.559C115.119 33.5072 115.655 34.3514 116.4 34.9747C117.171 35.539 118.073 35.8878 119.017 35.9866C119.922 36.1934 120.867 36.1058 121.721 35.7362C122.707 35.3411 123.549 34.6446 124.132 33.7421C124.377 33.2788 124.559 32.7842 124.675 32.2713C124.823 31.6686 125.002 31.0734 125.096 30.4558C125.186 29.9711 125.208 29.476 125.162 28.9851ZM121.042 6.43501C120.709 6.37243 120.383 6.27691 120.068 6.1498C120.409 6.17523 120.741 6.27233 121.042 6.43501Z" fill="white"/>
<path d="M144.746 23.8649C144.441 23.0178 143.972 22.2422 143.367 21.5846C142.762 20.927 142.032 20.401 141.223 20.038C141.366 19.7577 141.868 19.6337 142.12 19.5097C142.249 19.4254 142.36 19.3138 142.444 19.1823C142.676 18.9074 142.889 18.6156 143.079 18.3093C143.358 17.8791 143.607 17.429 143.823 16.9625C144.049 16.3869 144.24 15.798 144.397 15.1991C144.53 14.6386 144.597 14.0643 144.599 13.4877C144.657 12.945 144.668 12.3981 144.632 11.8533C144.521 10.903 144.089 10.0218 143.411 9.3607C143.09 9.05295 142.72 8.80451 142.316 8.62654C141.756 8.36858 141.189 8.1156 140.622 7.87006C139.568 7.41125 138.402 7.3641 137.275 7.22523C136.795 7.16571 136.304 7.13344 135.831 7.03671C135.538 6.97718 135.126 6.77629 134.835 6.93505C134.583 7.07145 134.719 7.75352 134.748 7.9693C134.821 8.50749 134.666 9.03824 134.767 9.57396C134.779 9.61614 134.792 9.66079 134.804 9.70296C134.81 9.71774 134.82 9.73027 134.834 9.73898C134.847 9.74769 134.863 9.75219 134.878 9.75192C134.894 9.75165 134.91 9.74663 134.923 9.73747C134.936 9.72831 134.946 9.71544 134.952 9.70045C134.968 9.64837 134.981 9.59629 134.995 9.5442C134.878 11.7331 134.894 13.9273 135.041 16.1143C135.167 18.7309 135.703 21.3029 135.778 23.9195C135.851 26.4741 135.621 29.0981 136.059 31.6279C136.153 32.2655 136.19 32.9106 136.168 33.5551C136.166 33.7956 136.127 34.0362 136.127 34.2768C136.127 34.5521 136.178 34.8224 136.17 35.1002C136.156 35.6533 136.006 36.194 135.942 36.7397C135.902 37.0943 136.253 37.206 136.519 37.2654C136.946 37.2967 137.375 37.2616 137.792 37.1613C138.349 37.1267 138.902 37.0421 139.444 36.9083C140.373 36.684 141.216 36.1864 141.87 35.4772C143.282 33.9435 144.29 32.0684 144.797 30.0282C145.337 28.0082 145.319 25.8753 144.746 23.8649ZM139.054 16.6128C138.868 16.8732 138.596 17.5453 138.191 17.4561C137.772 17.3643 137.881 16.5756 137.913 16.2953C137.948 15.8457 137.96 15.3945 137.947 14.9436C137.965 14.4539 137.952 13.9634 137.908 13.4753C137.791 12.738 137.73 11.9926 137.724 11.2456C137.716 11.2375 137.711 11.2277 137.707 11.2169C137.704 11.2062 137.703 11.1948 137.704 11.1837L137.721 11.0447C137.639 10.8847 137.606 10.7035 137.624 10.5239C137.624 10.5164 137.625 10.5088 137.627 10.5016C137.634 10.3924 137.648 10.2858 137.661 10.1816C137.663 10.1656 137.669 10.1505 137.68 10.1382C137.69 10.1259 137.703 10.1169 137.719 10.1124C137.734 10.108 137.75 10.1081 137.765 10.1129C137.78 10.1177 137.794 10.1269 137.804 10.1395C137.837 10.1883 137.864 10.2407 137.886 10.2957C137.897 10.2957 137.908 10.2982 137.918 10.3029C137.928 10.3075 137.936 10.3143 137.944 10.3228C137.951 10.3313 137.956 10.3412 137.959 10.352C137.962 10.3627 137.963 10.374 137.961 10.385L137.951 10.4644C138.526 10.5214 139.093 10.5561 139.517 11.02C139.942 11.497 140.237 12.0794 140.372 12.709C140.661 14.1152 139.837 15.5265 139.054 16.6128ZM139.74 32.1091C139.727 32.1147 139.713 32.1167 139.699 32.115C139.685 32.1133 139.672 32.108 139.661 32.0995C139.649 32.0909 139.64 32.0796 139.635 32.0665C139.629 32.0534 139.627 32.039 139.628 32.0248C139.719 31.3389 139.714 30.6433 139.614 29.9588C139.522 29.3635 139.347 28.7807 139.275 28.1829C139.215 27.7719 139.177 27.358 139.158 26.9429C139.175 26.6395 139.17 26.3353 139.144 26.0326C139.118 25.7414 139.117 25.4484 139.141 25.1571C139.139 25.0711 139.129 24.9854 139.11 24.9016C139.049 24.8967 138.991 24.8892 138.93 24.8818C138.92 24.8806 138.91 24.8772 138.9 24.8719C138.891 24.8666 138.883 24.8595 138.877 24.8509C138.87 24.8424 138.865 24.8326 138.862 24.8221C138.86 24.8117 138.859 24.8008 138.86 24.79C138.887 24.5941 138.916 24.4329 139.127 24.4106C139.139 24.4093 139.152 24.4111 139.164 24.4158C139.176 24.4206 139.186 24.4281 139.194 24.4378L139.202 24.4453C139.205 24.4478 139.207 24.4527 139.209 24.4552C139.214 24.4626 139.216 24.4712 139.216 24.48C139.216 24.4849 139.219 24.4899 139.219 24.4974C139.216 24.5786 139.22 24.66 139.231 24.7404C139.5 24.7407 139.765 24.8098 140.002 24.9413C140.34 25.1254 140.658 25.3448 140.951 25.5961C141.24 25.8668 141.467 26.1981 141.618 26.5672C141.769 26.9363 141.84 27.3343 141.826 27.734C141.666 29.366 141.361 31.3105 139.74 32.1091Z" fill="white"/>
<path d="M160.168 29.1032C160.178 28.503 160.168 27.9003 160.19 27.3001C160.211 26.6899 160.301 26.0873 160.297 25.4746C160.292 24.9463 160.248 24.4206 160.221 23.8923C160.19 23.2474 160.262 22.6125 160.253 21.9701C160.229 20.3505 159.957 18.7508 159.93 17.1337C159.893 15.62 159.745 14.1112 159.489 12.6197C159.375 11.8974 159.19 11.1887 158.937 10.5041C158.696 9.95137 158.357 9.44923 157.936 9.02343C157.577 8.5929 157.066 8.3253 156.514 8.27936C156.208 8.23973 155.899 8.22729 155.59 8.24216C155.29 8.31777 154.983 8.3651 154.675 8.38358C154.661 8.38211 154.647 8.38428 154.634 8.38988C154.622 8.39549 154.611 8.40433 154.602 8.41555C154.594 8.42678 154.589 8.44001 154.587 8.45395C154.585 8.4679 154.587 8.48209 154.592 8.49514C153.119 8.68613 151.926 9.75261 151.18 11.0969C150.905 11.6045 150.675 12.1366 150.494 12.6867C150.363 13.178 150.298 13.6854 150.303 14.1947C150.247 15.2934 149.944 16.407 150.039 17.5033C150.152 18.8351 150.247 20.1447 150.257 21.484C150.267 22.7861 150.259 24.0907 150.315 25.3928C150.368 26.6949 150.447 27.9945 150.553 29.2917C150.606 29.9191 150.664 30.5491 150.727 31.1741C150.76 31.7935 150.839 32.4095 150.962 33.017C151.224 34.0735 151.953 34.959 152.479 35.8865C152.641 36.1718 152.607 36.1544 152.872 36.328C153.05 36.4686 153.219 36.6211 153.378 36.7844C153.698 37.0159 154.073 37.1556 154.464 37.1886C155.949 37.4565 157.808 37.1564 158.762 35.8493C159.359 34.9177 159.728 33.8537 159.838 32.7466C160.031 31.5413 160.141 30.3239 160.168 29.1032ZM156.334 32.7689C156.012 33.2947 155.413 33.1608 155.006 32.8012C154.728 32.5862 154.54 32.2715 154.48 31.9207C154.416 31.3651 154.387 30.8059 154.394 30.2465C154.357 29.6265 154.442 29.0288 154.461 28.4112C154.478 27.7211 154.459 27.0307 154.403 26.3427C154.352 25.6929 154.258 25.0431 154.253 24.3933C154.306 23.7262 154.303 23.0557 154.243 22.3893C154.11 21.6997 154.042 21.0028 153.947 20.3059C153.867 19.7131 153.698 19.1526 153.594 18.5673C153.414 17.3631 153.295 16.1503 153.238 14.9338C153.168 14.509 153.231 14.0728 153.417 13.6862C153.595 13.3452 153.851 13.0527 154.163 12.833C154.502 12.5999 154.837 12.7214 155.222 12.7686C155.394 12.7884 155.564 12.8058 155.734 12.8405C155.869 12.8871 156 12.9478 156.124 13.0215C156.14 13.0095 156.16 13.0041 156.179 13.0066C156.303 13.019 156.339 13.1455 156.366 13.2522C156.392 13.3539 156.48 13.525 156.41 13.6217C156.412 13.6465 156.412 13.6714 156.412 13.6986C156.603 14.3309 156.635 15.0024 156.504 15.6506C156.233 17.7686 156.371 19.8644 156.46 21.9899C156.467 22.3058 156.495 22.6207 156.545 22.9324C156.599 23.1822 156.632 23.436 156.645 23.6914C156.652 24.0435 156.717 24.4007 156.702 24.7504C156.674 24.9834 156.673 25.219 156.698 25.4523C156.736 25.6482 156.747 25.8486 156.729 26.0475C156.696 26.46 156.685 26.874 156.695 27.2877C156.7 27.7738 156.633 28.2525 156.63 28.7386C156.635 29.2047 156.617 29.6707 156.577 30.135C156.521 30.6607 156.533 31.1866 156.516 31.7123C156.542 32.0744 156.479 32.4373 156.334 32.7689Z" fill="white"/>
<path d="M178.221 36.3602C178.156 35.8616 177.989 35.373 177.901 34.877C177.48 32.5247 176.911 30.2025 176.198 27.925C175.822 26.7047 175.526 25.4596 175.115 24.2543C174.908 23.6596 174.732 23.0545 174.586 22.4413C174.528 22.1883 174.509 21.9154 174.436 21.6674C174.308 21.2135 174.543 20.8614 174.594 20.4224C174.64 19.9227 174.713 19.4259 174.812 18.9343C175.001 18.3897 175.16 17.835 175.289 17.2725L175.379 16.5036C175.431 16.3153 175.499 16.1319 175.582 15.9555C175.629 15.7684 175.66 15.5775 175.674 15.3851C175.713 15.0527 175.89 14.7526 175.951 14.4228C176.012 13.8723 176.115 13.3275 176.259 12.7933C176.455 12.2195 176.595 11.6271 176.675 11.0249C176.743 10.5115 176.671 9.99559 176.697 9.48219C176.707 9.29119 176.891 8.83485 176.731 8.66618C176.542 8.46528 176.176 8.54964 175.934 8.55955C175.453 8.59461 174.975 8.6634 174.504 8.76542C174.25 8.81253 173.927 8.82741 173.784 9.07049C173.577 9.50138 173.467 9.97429 173.462 10.4544C173.454 10.8356 173.41 11.2151 173.331 11.5879C173.227 11.8927 173.147 12.2053 173.091 12.5229C172.936 13.4003 172.724 14.2662 172.456 15.1147C172.243 15.9829 172.086 16.8644 171.986 17.7537C171.972 18.2351 171.884 18.7113 171.725 19.1649C171.627 19.4173 171.571 19.6848 171.56 19.9561C171.351 19.5289 171.192 19.0787 171.085 18.6143C170.949 18.1282 170.821 17.647 170.661 17.1683C170.309 16.1143 169.842 15.1073 169.478 14.0582C169.282 13.4952 169.1 12.9272 168.943 12.3493C168.824 11.9153 168.538 11.5457 168.385 11.1191C168.138 10.4247 168.235 9.58882 167.775 8.9911C167.709 8.60803 167.502 8.26534 167.195 8.03373C166.977 7.92239 166.728 7.8934 166.49 7.95188C165.941 8.01429 165.387 8.02592 164.835 7.98662C164.422 7.96699 164.01 8.05399 163.638 8.2396C163.391 8.36609 163.398 8.85471 163.43 9.07793C163.655 10.2935 163.959 11.4924 164.341 12.6668C164.699 13.9391 165.175 15.1693 165.608 16.4168C165.918 17.5278 166.313 18.6124 166.788 19.6609C166.917 19.8732 167.022 20.0995 167.101 20.3356C167.125 20.627 167.1 20.9205 167.028 21.2036L166.815 23.0166C166.784 23.6675 166.675 24.312 166.493 24.9363C166.336 25.4963 166.246 26.0733 166.224 26.6551C166.194 27.1042 166.115 27.5484 165.989 27.9795C165.873 28.3585 165.799 28.7495 165.768 29.1452C165.729 29.6141 165.641 30.0773 165.504 30.5267C165.384 30.969 165.31 31.4229 165.283 31.8809C165.167 32.868 165.211 33.865 165.095 34.8546L165.017 35.5094C164.993 35.7227 165.022 35.6831 165.066 35.8815C165.126 36.1593 165.063 36.4792 165.208 36.7322C165.216 36.7484 165.228 36.7618 165.243 36.7707C165.258 36.7795 165.276 36.7834 165.293 36.7818C166.001 36.69 166.827 36.4568 167.535 36.571C167.695 36.6275 167.865 36.6459 168.033 36.6248C168.201 36.6038 168.362 36.5438 168.504 36.4494C168.821 36.1493 168.763 35.3929 168.812 34.9985C168.892 34.3115 169.064 33.6716 169.2 32.9945C169.33 32.3447 169.463 31.6899 169.587 31.0376C169.73 30.2911 169.939 29.5718 170.026 28.8129C170.115 28.0614 170.324 27.3347 170.484 26.5981C170.619 25.9681 170.738 25.3331 170.83 24.6933C170.879 24.8777 170.938 25.0591 171.007 25.2364C171.105 25.5142 171.17 25.8033 171.199 26.0971C171.259 26.339 171.337 26.5761 171.431 26.8064C171.637 27.3496 171.797 27.9101 172.01 28.4508C172.175 28.7705 172.32 29.1001 172.444 29.4379C172.517 29.7132 172.599 29.986 172.689 30.2539C172.859 30.7623 173.132 31.2112 173.329 31.7048C173.542 32.243 173.75 32.7861 173.971 33.3194C174.383 34.3629 174.917 35.3515 175.563 36.2634C175.791 36.5734 175.917 36.9033 176.339 36.9777C176.851 37.0401 177.37 36.992 177.863 36.8364C177.97 36.8183 178.068 36.759 178.134 36.6706C178.201 36.5822 178.232 36.4712 178.221 36.3602Z" fill="white"/>
<path d="M184.468 39.7605C184.433 39.2204 184.324 38.6879 184.146 38.1781C183.962 37.5655 183.882 36.938 183.705 36.3229C183.494 35.7054 183.325 35.074 183.199 34.433C183.104 33.7856 183.048 33.1333 182.99 32.481C182.937 31.9032 182.879 31.3278 182.794 30.7548C182.668 30.1237 182.582 29.485 182.537 28.8426C182.52 28.2424 182.518 27.6471 182.455 27.0519C182.392 26.4417 182.268 25.8416 182.198 25.2339C182.13 24.6585 182.154 24.0757 182.13 23.4978C182.062 22.8366 181.962 22.1794 181.83 21.5285C181.747 20.9382 181.708 20.3429 181.679 19.7477C181.648 19.0879 181.502 18.4233 181.449 17.7635C181.343 16.4589 181.333 15.1469 181.265 13.8398C181.233 13.2198 181.158 12.6047 181.127 11.9872C181.09 11.2927 181.115 10.5958 181.108 9.90127C181.051 8.69265 180.902 7.49032 180.664 6.30498C180.475 5.12443 180.49 3.92151 180.317 2.73598C180.244 2.22257 180.179 1.72158 180.145 1.20572C180.124 0.865925 180.199 0.536059 179.903 0.295476C179.755 0.207198 179.588 0.156982 179.416 0.149146C179.089 0.0995405 178.757 0.0672993 178.427 0.0251343C178.185 -0.0279069 177.932 0.00353338 177.71 0.114417C177.38 0.314187 177.009 0.43384 176.627 0.464127C176.292 0.412042 175.352 0.141706 174.972 0.426924C174.872 0.417 174.773 0.404602 174.671 0.397161C174.448 0.396712 174.226 0.412461 174.005 0.444288C173.498 0.479008 172.992 0.479008 172.48 0.521173L170.484 0.67991C169.813 0.731994 169.171 0.82376 168.492 0.818798C167.855 0.813836 167.229 0.846082 166.592 0.888243C165.269 0.97753 163.939 0.975047 162.613 1.01721C161.28 1.05938 159.952 1.14122 158.617 1.15858C157.456 1.17347 156.32 1.22803 155.164 1.31236C153.986 1.39916 152.813 1.17099 151.631 1.21315C150.979 1.23795 150.332 1.3446 149.678 1.34707C149.045 1.34956 148.413 1.36196 147.78 1.38924C147.155 1.41901 146.532 1.51821 145.907 1.53062C145.204 1.5455 144.502 1.5579 143.799 1.56286C142.493 1.57526 141.187 1.56038 139.88 1.50829C138.945 1.47109 138.017 1.57773 137.081 1.53309C136.669 1.51325 136.27 1.45125 135.858 1.46861C135.61 1.47853 135.354 1.54549 135.102 1.58022L135.104 1.5579C135.106 1.53625 135.1 1.51449 135.087 1.49732C135.074 1.48015 135.055 1.46895 135.034 1.46613C134.475 1.37249 133.911 1.32439 133.345 1.32228C132.788 1.37332 132.238 1.48984 131.707 1.66951C131.416 1.75136 131.159 1.63479 130.936 1.89273C130.864 1.99765 130.819 2.11973 130.805 2.2474C130.791 2.58415 130.801 2.92153 130.834 3.25685C130.805 3.83721 130.708 4.41758 130.641 4.99299C130.573 5.56094 130.631 6.1289 130.599 6.6969C130.559 7.22243 130.548 7.74997 130.568 8.27677C130.633 8.94952 130.638 9.62697 130.582 10.3006C130.523 10.8484 130.516 11.4009 130.563 11.9499L130.633 12.8924C130.693 13.287 130.716 13.6864 130.704 14.0854C130.616 14.6235 130.564 15.1671 130.548 15.7124C130.563 16.3622 130.512 16.9997 130.51 17.652C130.558 18.8495 130.67 20.0434 130.846 21.2284C130.982 22.5479 130.951 23.8872 131.065 25.2116C131.197 26.5961 131.235 27.9885 131.176 29.3784C131.144 30.0182 131.108 30.6581 131.089 31.298C131.074 31.7941 131.152 32.2752 131.094 32.7663L130.897 34.4379C130.861 34.743 130.815 35.0506 130.805 35.3581C130.798 35.6607 130.847 35.9608 130.839 36.2659C130.847 36.7687 130.897 37.2699 130.989 37.7639C131.033 38.064 131.091 38.3591 131.159 38.6518C131.219 38.9952 131.257 39.3424 131.271 39.691C131.3 39.9911 131.338 40.2887 131.387 40.5839C131.403 40.8489 131.458 41.1099 131.552 41.3577C131.673 41.5685 131.585 42.129 131.818 42.2605C132.178 42.4024 132.566 42.4551 132.95 42.4143C133.471 42.4391 133.993 42.4316 134.513 42.392C135.11 42.2967 135.714 42.2495 136.318 42.2506C136.592 42.2655 136.864 42.3077 137.135 42.3399C137.469 42.3796 137.796 42.3523 138.131 42.3721C138.412 42.387 138.688 42.3027 138.972 42.32C139.224 42.3349 139.478 42.382 139.73 42.4143C140.305 42.4891 140.886 42.4982 141.463 42.4416C142.076 42.3821 142.687 42.32 143.3 42.2705L144.22 42.1985C144.581 42.1688 144.889 42.0274 145.248 41.9679C145.769 41.8786 146.37 42.1043 146.898 42.1216C147.114 42.1266 147.33 42.0968 147.545 42.0844C147.897 42.0646 148.255 42.1315 148.609 42.1291C149.78 42.1577 150.948 42.2645 152.106 42.449C152.352 42.4771 152.601 42.473 152.847 42.4366C153.172 42.4147 153.499 42.4338 153.819 42.4936C154.058 42.5481 154.301 42.5772 154.546 42.5805C154.939 42.5358 155.333 42.5383 155.729 42.5333C156.904 42.5234 158.065 42.1886 159.24 42.3324C159.703 42.3659 160.168 42.361 160.631 42.3176C160.9 42.3077 161.166 42.2729 161.438 42.2754C161.705 42.2559 161.97 42.2094 162.228 42.1365C162.867 42.0846 163.511 42.1298 164.137 42.2705C164.763 42.293 165.389 42.2548 166.008 42.1563C166.59 42.1092 167.169 42.0646 167.746 41.9728C168.376 41.9042 169.001 41.7823 169.611 41.6082C170.122 41.3883 170.675 41.2899 171.228 41.3205C171.82 41.4192 172.421 41.4624 173.021 41.4495C174.189 41.38 175.333 41.0402 176.498 40.9163C177.136 40.886 177.775 40.9293 178.403 41.0452C179.028 41.1221 179.661 41.1841 180.281 41.2932C180.736 41.3905 181.2 41.4363 181.665 41.4297C182.165 41.3773 182.653 41.2398 183.109 41.0229C183.321 40.9158 183.543 40.8286 183.77 40.7625C183.885 40.7417 183.995 40.7023 184.098 40.6459C184.235 40.5486 184.342 40.414 184.407 40.2574C184.473 40.1009 184.494 39.9287 184.468 39.7605ZM181.389 38.1706C181.299 38.2004 181.194 38.2053 181.168 38.3219C181.165 38.3352 181.16 38.3477 181.152 38.3584C181.143 38.369 181.133 38.3776 181.121 38.3834C181.109 38.3892 181.096 38.392 181.082 38.3917C181.069 38.3913 181.056 38.3878 181.044 38.3814C181.023 38.3993 181 38.4159 180.977 38.4311C180.624 38.6191 180.24 38.7393 179.845 38.7857C179.212 38.891 178.575 38.963 177.936 39.0015C176.581 39.0957 175.219 39.1205 173.862 39.1131C172.228 39.1032 170.598 39.004 168.965 39.0189C166.34 39.0461 163.72 39.2049 161.101 39.3388C155.825 39.6091 150.557 39.9986 145.287 40.3507C142.723 40.5219 140.152 40.4996 137.586 40.4103C136.468 40.3706 134.406 40.8269 133.9 39.4157C133.863 39.3165 134.011 39.2495 134.048 39.3512C134.066 39.4041 134.089 39.4555 134.115 39.505C134.098 39.1793 134.103 38.8528 134.13 38.5278C134.135 37.3797 134.079 36.2322 133.963 35.0902C133.432 29.7057 133.415 24.2939 133.335 18.8896C133.255 13.7903 133.417 8.65868 132.473 3.62885C132.456 3.61685 132.445 3.59875 132.441 3.57837C132.437 3.558 132.442 3.53696 132.453 3.51972C132.451 3.51228 132.451 3.50483 132.448 3.49491C132.429 3.39819 132.562 3.37339 132.598 3.45027C132.711 3.43165 132.825 3.43165 132.938 3.45027C132.951 3.45172 132.964 3.45656 132.974 3.46433C132.985 3.47209 132.994 3.48254 133 3.49468C133.006 3.50682 133.008 3.52027 133.008 3.53376C133.007 3.54725 133.003 3.56033 132.996 3.5718C135.153 3.94631 137.362 3.84214 139.541 3.82726C141.984 3.8099 144.424 3.93639 146.867 3.92151C149.569 3.90415 152.268 3.8223 154.965 3.72061C157.606 3.62141 160.255 3.56189 162.894 3.39819C165.465 3.23946 168.024 2.90215 170.593 2.71614C173.079 2.53756 175.582 2.52268 178.04 2.05392C178.141 2.03408 178.166 2.19777 178.064 2.21761C178.056 2.21761 178.051 2.22009 178.044 2.22009C178.41 4.6507 178.618 7.10113 178.82 9.55156C179.254 14.8319 179.789 20.0999 180.293 25.3753C180.419 26.6848 180.555 27.9944 180.645 29.3064C180.692 30.2491 180.689 31.1938 180.637 32.1363C180.565 34.0808 180.388 36.2088 181.078 38.0689C181.091 38.0664 181.104 38.0672 181.116 38.071C181.128 38.0749 181.139 38.0819 181.148 38.0913C181.204 38.0639 181.262 38.0407 181.321 38.0218C181.422 37.9871 181.488 38.1384 181.389 38.1706Z" fill="white"/>
<path d="M207.23 17.5792C207.318 21.9016 207.505 26.2221 207.505 30.546C207.505 31.865 207.443 33.1828 207.443 34.5018C207.443 35.4255 207.618 36.3384 207.618 37.2621C207.649 37.4621 207.602 37.6662 207.487 37.8312C207.251 38.0568 205.445 38.2492 205.051 38.2492C204.117 38.2492 203.916 35.8529 203.762 35.1678C202.779 30.809 201.373 26.4569 200.116 22.1716C199.692 20.724 198.845 17.2616 198.177 16.0242C198.185 17.3209 198.291 18.6149 198.495 19.8949C198.986 24.3906 198.822 28.9248 199.1 33.4331C199.163 34.4513 199.344 35.4619 199.344 36.4837C199.344 37.5646 199.023 37.8029 198.025 37.8029C197.137 37.8029 196.192 37.8939 196.192 36.6715C196.192 27.9532 195.77 19.2373 195.471 10.5261C195.408 8.71346 195.154 6.91132 195.154 5.09601C195.138 4.8367 195.182 4.57708 195.284 4.33887C196.306 4.45852 197.712 3.96844 198.07 5.41451C199.803 12.4293 202.06 19.2588 203.855 26.2248C204.064 27.031 204.32 28.7111 204.777 29.3301C204.572 21.39 203.706 13.0148 203.706 5.19553C203.7 5.035 203.753 4.87798 203.855 4.75569C203.957 4.6334 204.101 4.55482 204.257 4.53556C204.513 4.53556 204.764 4.59035 205.018 4.6162C206.568 4.77557 207.142 4.51689 207.142 6.44229C207.142 7.33678 207 8.22386 207 9.11835C207 11.9406 207.173 14.7591 207.231 17.5801L207.23 17.5792Z" fill="white"/>
<path d="M217.289 6.56401C217.647 6.54344 218.006 6.49821 218.365 6.49821C219.393 6.49821 219.703 7.08449 219.703 8.06944C219.703 8.42312 219.662 9.95869 219.157 9.95869C218.43 9.95869 217.733 9.53968 217.022 9.45688C216.166 9.35597 215.305 9.30237 214.443 9.29631C214.037 9.29631 213.947 9.44803 213.947 9.84719C213.947 10.634 214.062 11.4213 214.062 12.2143C214.001 13.5267 214.026 14.8419 214.139 16.1508C214.199 16.5987 214.192 17.0972 214.744 17.0972C215.337 17.0972 215.933 16.9926 216.528 16.9926C217.446 16.9926 217.765 18.0587 217.765 18.861C217.765 19.588 217.205 19.9479 216.542 19.9479C216.115 19.9479 215.692 19.8651 215.265 19.8651C214.889 19.8651 214.336 19.9594 214.336 20.4473C214.336 21.1337 214.665 21.797 214.665 22.5292C214.665 23.3842 214.597 24.2378 214.597 25.0943C214.597 28.3458 215.115 31.5864 215.115 34.8224C215.115 35.7028 213.828 36.2855 213.095 36.2855C212.222 36.2855 212.054 35.6298 212.054 34.8698C212.054 34.2912 212.176 33.7197 212.176 33.1445C212.176 28.4562 211.736 23.7839 211.522 19.1035C211.344 15.229 210.893 11.3536 210.893 7.47264C210.893 6.82295 211.015 6.30176 211.747 6.30176C212.286 6.30176 212.835 6.45826 213.372 6.51234C214.103 6.58604 214.84 6.61476 215.574 6.61476C216.146 6.61476 216.717 6.59561 217.289 6.56379L217.289 6.56401Z" fill="white"/>
<path d="M231.996 7.7376C232.008 8.0893 231.883 8.43146 231.649 8.69001C231.415 8.94856 231.091 9.1027 230.747 9.11904C230.199 9.11904 229.751 8.70243 229.226 8.70243C228.866 8.70243 228.862 9.18509 228.862 9.43683C228.868 9.7111 228.889 9.98484 228.924 10.2569C229.26 13.509 229.229 16.7821 229.374 20.0456C229.525 23.4652 229.716 26.8821 229.983 30.2945C230.03 30.9109 230.048 31.5285 230.048 32.1469C230.028 32.7958 230.045 33.4453 230.1 34.0921C230.223 34.6584 230.313 35.2316 230.369 35.8089C230.369 36.8062 229.312 36.9233 228.564 36.9233C227.415 36.9233 227.278 36.4676 227.278 35.4054C227.278 34.4417 227.395 33.4824 227.395 32.5187L227.393 32.4068C227.161 25.0747 226.647 17.7539 226.475 10.4192C226.455 9.54476 226.535 8.63495 225.39 8.63495C224.732 8.63495 224.138 9.00825 223.479 9.00825C222.636 9.00825 222.529 8.24825 222.529 7.56338C222.529 7.12785 222.609 5.66455 223.219 5.66455C223.569 5.70421 223.914 5.78615 224.245 5.90863C225.294 6.11821 226.364 6.2007 227.432 6.15439C228.273 6.15439 229.107 6.00196 229.948 6.00196C230.394 5.98114 230.839 6.05607 231.254 6.22188C231.499 6.38452 231.696 6.61066 231.827 6.87705C231.957 7.14345 232.016 7.44047 231.996 7.7376Z" fill="white"/>
</svg>
