<svg width="232" height="43" viewBox="0 0 232 43" fill="none" xmlns="http://www.w3.org/2000/svg">
<path d="M23.365 34.0587C23.2933 33.8917 23.2763 33.7056 23.3166 33.528C23.367 33.3301 23.3728 33.1232 23.3335 32.9228C23.2633 32.645 22.9361 32.5185 22.6914 32.4763C22.2576 32.3995 21.7802 32.7566 21.3683 32.5086C21.2713 32.4515 21.3659 32.0473 21.361 31.9679C21.323 31.637 21.3117 31.3036 21.3271 30.9708C21.4242 30.405 21.472 29.8315 21.47 29.257C21.4434 28.7808 21.5209 28.3096 21.4967 27.8383C21.4797 27.5283 21.4216 27.2307 21.4264 26.9182C21.4393 26.5886 21.4692 26.2599 21.5161 25.9335C21.5678 25.2478 21.5783 24.5596 21.5476 23.8725C21.5476 23.0491 21.5209 22.2256 21.5403 21.4022C21.5787 20.5992 21.5601 19.7943 21.4846 18.9939C21.4232 18.1365 21.4078 17.2762 21.4385 16.417C21.4515 15.6397 21.4232 14.8623 21.3537 14.0881C21.2544 13.2647 21.0823 12.4537 21.0387 11.6228C20.9927 10.782 20.794 9.95363 20.7503 9.11032C20.7285 8.68374 20.7818 8.26707 20.7988 7.84295C20.8061 7.62471 20.794 7.40893 20.7867 7.19315C20.8989 7.24907 21.023 7.27549 21.1477 7.27002C21.2981 7.24798 21.4415 7.19114 21.567 7.10386C21.8214 6.91785 21.7996 6.48876 21.819 6.21099C21.8529 5.75711 22.0129 4.94855 21.4143 4.81461C21.2059 4.76751 20.9805 4.92622 20.7552 4.89897C20.4994 4.85891 20.2409 4.83983 19.9822 4.84191C19.3982 4.86423 18.8214 4.83945 18.2374 4.86423C17.6389 4.89153 17.0694 4.89153 16.4709 4.97831C15.8969 5.1091 15.3092 5.16658 14.7213 5.14944C14.0926 5.02383 13.4433 5.05877 12.8311 5.25115C12.2132 5.51157 12.3925 6.32757 12.5234 6.836C12.6009 7.13609 12.6785 7.32708 12.9911 7.40646C13.1971 7.45855 13.4418 7.33452 13.6478 7.3395C13.7964 7.32413 13.9463 7.34906 14.0825 7.41176C14.2186 7.47446 14.3362 7.57272 14.4232 7.6966C14.4866 7.94659 14.5095 8.20546 14.4911 8.46299C14.5129 8.75568 14.5007 9.04336 14.4959 9.33605C14.4862 9.97344 14.5201 10.6109 14.5613 11.2458C14.7091 13.478 14.9442 15.7027 15.109 17.9349C15.1889 19.0188 15.0945 20.0853 15.1187 21.1666C15.1308 21.7172 15.1962 22.2654 15.2229 22.8135C15.2471 23.3194 15.2132 23.8254 15.2374 24.3289C15.2616 24.8348 15.3174 25.3358 15.3368 25.8443C15.3562 26.3974 15.2665 26.9405 15.2786 27.4911C15.2835 27.7044 15.3222 27.9153 15.3222 28.1285C15.3071 28.4046 15.2764 28.6795 15.2301 28.952C15.1838 29.151 15.1611 29.355 15.1623 29.5596C15.2128 29.8467 15.2307 30.1389 15.2156 30.4301C15.1764 30.7705 15.1772 31.1144 15.218 31.4545C15.2908 31.9629 15.2132 32.3945 14.6655 32.5185C14.1082 32.645 13.4684 32.4292 13.008 32.8682C12.9915 32.8821 12.9808 32.9019 12.978 32.9236C12.9753 32.9452 12.9809 32.9671 12.9935 32.9848C13.2988 33.4486 12.8748 34.8549 13.8707 34.5225C14.1251 34.4721 14.3873 34.4788 14.6389 34.5424C14.8131 34.591 14.9942 34.6094 15.1744 34.5969C15.8093 34.4059 16.5823 34.6069 17.2414 34.6143C18.4121 34.6693 19.5792 34.7851 20.7382 34.9615C21.2398 35.0186 21.7584 34.902 22.2431 35.0086C22.4104 35.066 22.5876 35.0877 22.7635 35.0724C22.9394 35.057 23.1103 35.0049 23.2657 34.9193C23.4838 34.7779 23.4281 34.2497 23.365 34.0587Z" fill="#00A19A"/>
<path d="M36.1744 29.8076C36.189 29.567 36.2059 29.1653 35.9733 29.0115C35.685 28.818 35.2924 28.8974 34.9652 28.823C34.6599 28.7535 34.1971 28.5576 33.9063 28.7858C33.5161 29.0933 33.5452 29.6687 33.092 29.9192C32.6025 30.1896 31.8925 30.3185 31.5218 29.8151C31.2737 29.3742 31.1669 28.8651 31.2165 28.3592C31.2043 27.8582 31.2067 27.3547 31.1849 26.8537C31.1845 26.1724 31.2388 25.4922 31.3473 24.82C31.331 24.5537 31.2864 24.2901 31.214 24.0337C31.1728 23.7386 31.2092 23.4459 31.1946 23.1508C31.2073 22.5015 31.2599 21.8538 31.3521 21.2112C31.3885 20.6482 31.2577 20.0778 31.3231 19.5222C31.3457 18.9498 31.3319 18.3765 31.2819 17.806C31.3204 16.6025 31.4353 15.4029 31.626 14.2146C31.7665 13.034 31.7859 11.4715 32.9539 10.8291C33.4078 10.6263 33.9111 10.5675 34.3982 10.6605C34.752 10.7001 34.9071 10.963 35.0234 11.2706C35.0912 11.4492 34.9992 11.665 35.0573 11.8534C35.0745 11.9262 35.1059 11.9947 35.1496 12.0548C35.1933 12.1148 35.2485 12.1653 35.3118 12.2032C35.4668 12.285 35.7092 12.2651 35.8376 12.3693C35.978 12.4998 36.1516 12.5873 36.3385 12.6215C36.5254 12.6557 36.718 12.6354 36.8941 12.5628C37.197 12.414 37.3812 11.8261 37.483 11.536C37.653 11.0109 37.7421 10.462 37.7471 9.90898C37.7761 9.42382 37.7056 8.93783 37.5399 8.48212C37.3743 8.02641 37.1172 7.61102 36.7851 7.26258C36.3589 6.89887 35.8968 6.58136 35.4063 6.31515C35.2704 6.17208 35.1134 6.05158 34.941 5.958C34.5363 5.7634 34.0985 5.65054 33.6518 5.62564C32.8148 5.5152 31.9653 5.68769 31.2334 6.11672C30.4744 6.62463 29.8388 7.30234 29.3748 8.09839C29.1613 8.44971 28.9727 8.81606 28.8101 9.19468C28.5436 9.80727 28.1704 10.3926 27.8554 10.9829C27.5941 11.4484 27.4068 11.9531 27.3005 12.4785C27.1866 13.0613 27.1284 13.6417 26.9879 14.2196C26.7331 15.5036 26.5558 16.8023 26.4572 18.1085C26.2182 20.3833 26.1315 22.672 26.1978 24.9588C26.2075 25.5268 26.2754 26.0923 26.319 26.6578C26.3699 27.3126 26.3626 27.9698 26.3723 28.6246C26.3845 29.6911 26.382 30.8518 26.7916 31.8513C27.0082 32.3353 27.2542 32.8049 27.5282 33.2576C27.7064 33.6329 27.9647 33.9626 28.2843 34.2224C28.6256 34.4494 29.0003 34.6194 29.3941 34.7259C29.8617 34.8928 30.3372 35.0352 30.819 35.1525C31.7753 35.2796 32.747 35.1166 33.613 34.6837C34.546 34.2844 34.9919 33.4213 35.4063 32.5259C35.8235 31.6756 36.0838 30.7541 36.1744 29.8076Z" fill="#00A19A"/>
<path d="M59.9431 7.9621C59.9169 7.48379 59.9197 7.00429 59.9515 6.52633C59.998 6.30109 60.0608 5.91257 59.7898 5.79154C59.418 5.6726 59.0174 5.68852 58.6558 5.83659C58.0093 5.98609 57.3448 6.03731 56.6837 5.98859C55.4236 5.98859 54.1556 6.2279 52.8985 6.32081C51.4302 6.43059 49.9703 6.63045 48.5134 6.84444C47.1189 7.04995 45.763 7.35963 44.3553 7.4863C43.7117 7.54543 43.0817 7.58205 42.4381 7.60737C41.7643 7.63552 41.1179 7.77344 40.4523 7.84946C40.262 7.85785 40.0739 7.89387 39.8935 7.95645C39.8844 7.78939 39.8559 7.62402 39.8086 7.4638C39.7757 7.34834 39.6087 7.42436 39.6416 7.537C39.726 7.90726 39.7381 8.29088 39.6771 8.66591C39.6384 8.90835 39.6668 9.15702 39.7593 9.3838C39.8553 9.73814 39.885 10.1077 39.847 10.4733C39.8339 10.6573 39.8811 10.8405 39.9812 10.9941C40.099 11.1462 40.6851 10.9716 40.844 10.9575C41.1262 10.9053 41.4118 10.8742 41.6985 10.8646C41.9442 10.8899 42.1915 10.8956 42.4381 10.8815C42.6835 10.8421 42.9328 10.8336 43.1803 10.8561C43.4256 10.9138 43.6763 10.9441 43.928 10.9462C44.2648 10.904 44.6048 10.859 44.9417 10.8111C45.333 10.7105 45.735 10.6595 46.1385 10.6591L47.7821 10.8618C48.198 10.9125 47.9819 11.4783 47.9406 11.7289C47.938 12.1086 47.9544 12.4882 47.9898 12.8662C47.9543 13.4997 47.9872 14.1331 47.9464 14.7637C47.8998 15.4675 47.8502 16.1573 47.8721 16.8639C47.916 18.3222 47.9736 19.7693 47.9762 21.2304C47.9819 24.0541 48.0364 26.8834 48.1844 29.7043C48.1853 30.1303 48.2082 30.556 48.2529 30.9796C48.3695 31.4636 48.4339 31.9593 48.4449 32.4576C48.4146 32.8602 48.516 33.2599 48.4804 33.6681C48.4695 33.7836 48.5678 33.9356 48.5815 34.0651C48.5909 34.2505 48.5809 34.4365 48.5516 34.6197C48.5502 34.6339 48.5519 34.6483 48.5567 34.6617C48.5614 34.6752 48.5691 34.6874 48.5791 34.6974C48.5891 34.7074 48.6012 34.7149 48.6144 34.7195C48.6277 34.7241 48.6418 34.7256 48.6557 34.7239C50.0142 34.4029 51.3727 34.5212 52.7531 34.4987C53.184 34.4889 53.612 34.4236 54.0269 34.3044C54.1778 34.2793 54.3191 34.2125 54.4355 34.1112C54.5518 34.01 54.6388 33.8782 54.687 33.7301C54.7886 33.2409 54.8262 32.7401 54.799 32.2408C54.7885 31.5849 54.8623 30.9402 54.8456 30.2842C54.8406 29.6826 54.8782 29.0814 54.958 28.4853C55.0265 27.8941 54.936 27.3282 54.98 26.7426C55.0292 26.0754 55.2075 25.3998 55.1934 24.7269C55.1882 24.3919 55.1469 24.0597 55.1552 23.7218C55.1662 23.3446 55.24 22.9589 55.2839 22.5817C55.3263 21.9761 55.3236 21.3682 55.276 20.763C55.2754 19.9533 55.3174 19.1442 55.4016 18.3391C55.5167 16.8498 55.3498 15.3521 55.3331 13.8657C55.3252 13.2041 55.4016 12.5538 55.4293 11.8922C55.4403 11.6416 55.4319 11.3939 55.4482 11.1433C55.4594 10.9963 55.4898 10.8514 55.5386 10.7126C55.5799 10.5943 55.9743 10.5634 56.0754 10.5437C56.3448 10.4949 56.6183 10.4741 56.8919 10.4817C57.1129 10.4606 57.3307 10.4133 57.541 10.341C58.0861 10.2228 58.6285 10.4029 59.1653 10.2903C60.099 10.0989 59.8829 8.64337 59.9431 7.9621Z" fill="#00A19A"/>
<path d="M75.7053 24.4347C75.8348 22.3758 75.9916 20.3307 75.9859 18.2662C75.9806 16.2602 75.92 14.2292 75.7303 12.2344C75.5761 10.5917 75.1633 8.69477 74.0411 7.44035C73.7741 7.13573 73.4516 6.88711 73.0915 6.70839C72.8283 6.40145 72.4847 6.17756 72.1011 6.06303C71.3667 5.92614 70.6125 5.87029 69.8725 5.78087C68.7726 5.61381 67.6498 5.71041 66.5928 6.06303C65.5599 6.43093 64.6377 7.06516 63.9158 7.90413C63.1814 8.75344 63.1072 9.95474 62.9803 11.0164C62.85 11.6234 62.8147 12.2476 62.8758 12.8658C63.0027 13.5028 62.7743 14.313 62.697 14.9583C62.6324 15.5081 62.6491 16.0647 62.7466 16.6094C62.7988 17.2872 62.8016 17.968 62.755 18.6461C62.7853 20.0039 62.8731 21.3616 62.9144 22.7194C62.9466 23.4344 62.9402 24.1507 62.8951 24.865C62.8375 25.5858 62.7523 26.301 62.7576 27.0246C62.7936 28.1749 62.9206 29.3203 63.1375 30.4497C63.3076 31.5512 63.6298 32.6226 64.0946 33.6318C64.5019 34.6041 65.1952 35.4231 66.0785 35.9757C66.5836 36.2043 67.1233 36.3432 67.6742 36.3865C68.1852 36.496 68.7138 36.4865 69.2207 36.3585C71.3474 35.6824 72.8249 33.8888 73.7934 31.9388C74.329 30.8799 74.7541 29.7665 75.0618 28.617C75.4092 27.2476 75.6247 25.8469 75.7053 24.4347ZM70.7228 27.9856C70.5576 28.9578 70.2796 30.2653 69.4407 30.8743C68.6593 31.4415 67.8613 30.8185 67.6412 30.0195C67.3 28.7902 67.4515 27.4185 67.4458 26.1585C67.4405 24.7309 67.4102 23.3061 67.3799 21.8813C67.3496 20.4732 67.2618 19.0512 67.3386 17.6459C67.3753 16.9076 67.3652 16.1675 67.3083 15.4305C67.2502 14.9393 67.2291 14.4443 67.2451 13.9498C67.2697 13.6788 67.1432 13.4441 67.1572 13.176C67.2115 12.8116 67.2399 12.4437 67.2424 12.0752C67.2038 11.645 67.0773 11.2287 67.3966 10.8879C67.7405 10.5191 68.1832 10.0162 68.7116 9.96313C69.2067 9.95616 69.7008 10.0096 70.1834 10.1224C70.1995 10.1245 70.2147 10.131 70.2273 10.1414C70.24 10.1517 70.2496 10.1654 70.255 10.181C70.3227 10.1802 70.3889 10.2007 70.4448 10.2397C70.4718 10.2599 70.4944 10.2856 70.5111 10.3151C70.5511 10.3394 70.5804 10.3786 70.5927 10.4245C70.605 10.4703 70.5993 10.5193 70.577 10.561C71.2538 11.1225 71.386 12.349 71.3526 13.1536C71.317 14.0141 71.2292 14.8578 71.2261 15.7211C71.2235 16.6178 71.2318 17.5146 71.2867 18.4114C71.3628 19.2303 71.3868 20.0534 71.3583 20.8755C71.3034 21.7248 71.1932 22.5657 71.0913 23.4095C71.0139 23.8462 70.9817 24.29 70.9951 24.7337C71.0317 24.9795 71.0436 25.2285 71.0307 25.4768C70.9292 26.3122 70.8629 27.1587 70.7228 27.9856Z" fill="#00A19A"/>
<path d="M12.143 11.4194C11.8982 9.63862 10.5969 7.97689 9.22294 6.94018C8.51606 6.38624 7.67185 6.04439 6.78511 5.95304C5.81871 5.82584 4.84306 5.78766 3.86995 5.83897C2.90549 5.91091 1.94346 6.06716 0.979 6.12669C0.705561 6.1271 0.439552 6.21755 0.220517 6.3846C0.0218115 6.61777 0.121167 6.9625 0.109049 7.24278C0.107361 7.26322 0.113257 7.28356 0.12557 7.29977C0.137882 7.31598 0.155712 7.32688 0.175527 7.33031C0.195343 7.33373 0.215697 7.32944 0.232557 7.31828C0.249417 7.30712 0.261553 7.2899 0.26656 7.27003C0.110252 8.20294 0.0211602 9.14629 0 10.0925C0.0242359 11.1937 0.155092 12.2925 0.244749 13.3912C0.448304 15.8515 0.627627 18.297 0.603395 20.7698C0.593702 21.8735 0.70517 22.9747 0.768176 24.0759C0.836026 25.2267 0.67609 26.3899 0.710019 27.5482C0.74152 28.6916 0.666396 29.8225 0.622778 30.9634C0.6143 32.1217 0.67256 33.2795 0.797256 34.4308C0.799763 34.4486 0.808028 34.4652 0.82075 34.4777C0.833472 34.4903 0.84993 34.4982 0.867531 34.5002C1.34094 34.6052 1.828 34.6303 2.30937 34.5746C2.60986 34.5126 2.90792 34.4481 3.2084 34.3861C3.51621 34.3451 3.82612 34.3228 4.13651 34.3191C4.51213 34.2844 4.8877 34.2398 5.26574 34.2249C5.51776 34.215 5.91033 34.2671 6.08725 34.0314C6.27309 33.7296 6.35967 33.3751 6.33439 33.0195C6.35139 32.4441 6.45557 31.8662 6.52102 31.2958L6.72213 29.5919C6.79482 28.9669 6.7076 28.3443 6.78029 27.7218L6.8748 26.9306C6.8884 26.728 6.87536 26.5245 6.83602 26.3254C6.77545 25.7748 6.9063 25.1994 6.8748 24.6414C6.84331 24.0933 6.90871 23.565 6.84573 23.0144C6.81424 22.7391 6.76333 22.4663 6.71972 22.1934C6.6664 21.871 6.76092 21.561 6.72455 21.2485C6.69547 21.0054 6.55251 20.7053 6.75604 20.5143C6.93114 20.3791 7.12356 20.2689 7.32795 20.1869C7.70415 19.9835 8.05969 19.7426 8.38935 19.4677C9.23342 18.8917 9.94184 18.1319 10.4636 17.2429C10.953 16.3004 11.3867 15.3289 11.7625 14.3337C12.1292 13.4108 12.2601 12.408 12.143 11.4194ZM7.08075 13.974C7.04303 14.4748 6.91055 14.9633 6.69064 15.4125C6.47296 15.7411 6.22985 16.0513 5.96365 16.3402C5.72858 16.5981 5.23907 17.2231 4.78835 17.3421C4.75927 17.0842 4.73261 16.8263 4.71083 16.5757C4.67933 16.2236 4.64538 15.8466 4.58965 15.4721C4.58482 15.4398 4.5824 15.4076 4.57752 15.3753C4.56786 15.3108 4.55815 15.2489 4.55091 15.1893C4.56988 14.8753 4.56583 14.5603 4.53879 14.2468C4.48788 13.9046 4.4079 13.5673 4.35218 13.2275C4.29402 12.8679 4.18739 12.5231 4.14862 12.1585C4.1147 11.8262 4.09774 11.4938 4.05169 11.1639C4.01855 10.8436 3.96266 10.5261 3.88449 10.2141C3.88449 10.095 3.88449 9.97842 3.88691 9.85937C3.89175 9.80482 3.89903 9.75274 3.90388 9.69814C3.95783 9.29111 3.98778 8.88114 3.99354 8.47044C4.35241 8.46207 4.70949 8.52439 5.04525 8.65399C5.34067 8.82661 5.61413 9.0357 5.85946 9.27654C6.25822 9.63066 6.60867 10.0377 6.90146 10.4868C7.52423 11.5633 7.28191 12.8034 7.08075 13.974Z" fill="#00A19A"/>
<path d="M93.7298 34.3793C93.6064 33.7841 93.4803 33.1913 93.4052 32.5862C93.3822 32.283 93.3417 31.9816 93.284 31.6833C93.2019 31.346 93.1364 31.0038 93.0758 30.6615C92.8527 29.404 92.746 28.1292 92.5764 26.8618C92.3457 25.5634 92.0505 24.2779 91.6919 23.0101C91.5513 22.4173 91.4714 21.8245 91.3576 21.2293C91.2434 20.7043 91.0912 20.1886 90.9021 19.6866C90.8367 19.4981 90.3883 18.8408 90.5771 18.6524C90.7229 18.5085 90.9746 18.5382 91.1564 18.511C91.2728 18.4936 91.4327 18.3026 91.5249 18.2307C91.9 17.9685 92.2556 17.6783 92.5887 17.3626C92.9072 17.0047 93.1776 16.6052 93.3929 16.1746C93.9046 15.1999 94.0135 14.0714 94.1418 12.9851C94.1809 12.5261 94.1417 12.0637 94.0258 11.6185C93.9143 11.1224 93.8392 10.6264 93.689 10.1403C93.5927 9.71682 93.4101 9.31879 93.1531 8.9721C92.8365 8.57285 92.5001 8.1904 92.1451 7.82624C91.4641 7.18775 90.6579 6.7042 89.7799 6.40759C88.874 6.12513 87.9403 5.94547 86.9958 5.87187C85.9703 5.73096 84.9347 5.68281 83.901 5.72799C83.3592 5.79326 82.8131 5.81401 82.268 5.79002C81.7761 5.73794 81.2842 5.82225 80.7923 5.77016C80.7711 5.76814 80.7501 5.77448 80.7334 5.78787C80.7167 5.80126 80.7057 5.82068 80.7027 5.84211C80.6904 5.93637 80.671 6.02812 80.6517 6.11987C80.6432 6.10552 80.6305 6.09418 80.6155 6.0874C80.6004 6.08063 80.5837 6.07873 80.5675 6.08198C80.5514 6.08523 80.5366 6.09346 80.5252 6.10556C80.5138 6.11766 80.5063 6.13305 80.5037 6.14964L80.3487 7.45919C80.3468 7.48047 80.3531 7.50166 80.3662 7.51828C80.3794 7.5349 80.3984 7.54564 80.4192 7.54822C80.4399 7.5508 80.4609 7.54502 80.4776 7.53211C80.4943 7.5192 80.5054 7.50016 80.5085 7.47904C80.5071 7.49352 80.5097 7.50812 80.516 7.52118C80.3223 9.88237 80.5788 12.2757 80.6565 14.6369C80.7 15.944 80.729 17.2485 80.7338 18.5581C80.7365 19.1955 80.7387 19.8354 80.7413 20.4728C80.7439 21.0805 80.848 21.6956 80.8792 22.3057C80.9447 23.5656 80.9328 24.8305 80.9618 26.0929C81.0491 27.2619 81.2216 28.4225 81.4779 29.5653C81.5857 30.1663 81.6199 30.7786 81.5798 31.3882C81.4753 31.8875 81.4435 32.3998 81.4853 32.9086C81.524 33.1721 81.5191 33.4403 81.4709 33.7022C81.4796 33.9623 81.5346 34.2186 81.6329 34.4587C81.6481 34.6998 81.6497 34.9416 81.6378 35.1829C81.686 35.3702 81.7137 35.5623 81.7203 35.7558C81.6694 36.3858 82.142 36.5817 82.7015 36.5966C83.1403 36.609 83.5743 36.681 84.0078 36.7355C84.332 36.8143 84.6688 36.8227 84.9964 36.7603C85.5538 36.5694 85.4835 35.7137 85.5125 35.2399C85.5758 34.1908 85.7888 33.1491 85.8714 32.1025C85.9126 31.5717 85.9126 31.0385 85.9368 30.5052C85.9819 30.0753 85.9957 29.6426 85.9781 29.2106C85.9575 28.6982 85.9915 28.1851 86.0795 27.6803C86.1023 27.2465 86.1007 26.8118 86.0747 26.3782C86.0774 25.964 86.167 25.5572 86.1599 25.1381C86.1155 24.6498 86.1357 24.1576 86.2201 23.6748C86.3637 23.2832 86.412 22.8619 86.3606 22.447C86.283 22.141 86.2665 21.8222 86.3123 21.5096C86.3107 21.2921 86.2945 21.075 86.264 20.8597C86.4741 21.2122 86.6117 21.6046 86.6685 22.013C86.7678 22.4495 86.9861 22.8662 87.1192 23.2978C87.5064 24.4768 87.8132 25.6817 88.0376 26.904C88.2532 28.2036 88.5493 29.4908 88.75 30.793C88.847 31.413 88.9366 32.033 89.0241 32.6556C89.0965 33.1541 89.3948 33.6601 89.3803 34.166C89.363 34.5095 89.4209 34.8527 89.5498 35.1705C89.6662 35.4309 90.0707 35.3937 90.2938 35.3962C91.1813 35.3854 92.0687 35.4243 92.952 35.5128C93.1461 35.5376 93.5238 35.6393 93.6767 35.4384C93.759 35.2759 93.8063 35.0974 93.8155 34.9147C93.8246 34.7321 93.7954 34.5495 93.7298 34.3793ZM86.6567 16.4301C86.0838 16.766 85.451 16.9819 84.7953 17.065C84.1509 17.0923 83.9375 16.7128 83.8962 16.0878C83.8189 14.8824 83.7776 13.6895 83.6805 12.4766C83.6542 12.1344 83.6226 11.7896 83.5694 11.4474C83.5336 11.1651 83.5125 10.8812 83.5062 10.5967C83.482 10.1949 83.4117 9.79555 83.3973 9.39622C83.3864 9.38797 83.3778 9.37703 83.3723 9.36445C83.3668 9.35187 83.3645 9.33806 83.3656 9.32432L83.3753 9.23996L83.2954 9.23252C83.2746 9.22933 83.2558 9.218 83.2431 9.20093C83.2303 9.18386 83.2246 9.1624 83.2271 9.1411C83.2297 9.1198 83.2402 9.10034 83.2565 9.08685C83.2729 9.07335 83.2937 9.06689 83.3147 9.06883L83.3946 9.07627L83.4043 8.99693C83.4073 8.97561 83.4184 8.95635 83.4351 8.94325C83.4519 8.93015 83.473 8.92427 83.4939 8.92686C83.5149 8.92945 83.534 8.9403 83.5472 8.9571C83.5604 8.9739 83.5667 8.99531 83.5646 9.01674C83.5624 9.04232 83.5615 9.06799 83.562 9.09366H83.5646C84.5575 9.03122 85.5448 9.28515 86.3901 9.82033C87.2357 10.2994 87.8817 11.076 88.2075 12.0054C88.7333 13.5952 88.1979 15.6662 86.6567 16.4301Z" fill="#00A19A"/>
<path d="M109.367 34.3719C109.278 34.0916 108.965 34.0892 108.722 34.0842C108.408 34.0767 108.093 34.104 107.777 34.0966C107.446 34.0892 107.635 33.6824 107.61 33.4865C107.557 33.2307 107.538 32.9688 107.552 32.7077C107.613 32.245 107.634 31.7777 107.615 31.3113C107.581 30.6615 107.598 30.0316 107.603 29.3817C107.608 28.8584 107.61 28.3301 107.608 27.8068C107.603 27.2686 107.632 26.7279 107.593 26.1922C107.548 25.5981 107.54 25.0016 107.569 24.4064C107.606 23.7913 107.574 23.1886 107.569 22.5711C107.557 21.3508 107.772 20.1529 107.828 18.9351C107.855 18.3597 107.768 17.7992 107.782 17.2262C107.79 16.9683 107.819 16.7104 107.848 16.4549C107.879 16.1845 107.804 15.9018 107.809 15.6265C107.819 15.0486 107.935 14.4806 107.93 13.9003C107.925 13.2554 107.831 12.6131 107.782 11.9707C107.734 11.3382 107.683 10.7008 107.654 10.0659C107.63 9.53266 107.584 8.51822 108.141 8.23548C108.524 8.04202 109.21 8.3223 109.457 7.86098C109.675 7.45672 109.593 6.39518 109.048 6.27366C108.872 6.24929 108.694 6.25346 108.519 6.28603C108.239 6.29957 107.96 6.32939 107.683 6.37536C107.353 6.4596 107.012 6.49138 106.673 6.46958C106.317 6.4114 105.955 6.40388 105.597 6.44726C104.928 6.54152 104.261 6.64816 103.588 6.71266C102.878 6.77962 102.194 6.67792 101.489 6.69034C101.15 6.7014 100.812 6.73121 100.476 6.77962C100.103 6.86364 99.7214 6.90112 99.3395 6.89123C99.1019 6.85774 98.8617 6.84778 98.6223 6.86147C98.3851 6.88128 98.1549 6.98796 97.9222 7.02516L97.9292 6.96313C97.9313 6.94171 97.9251 6.92029 97.912 6.90347C97.8988 6.88665 97.8797 6.87578 97.8588 6.87318C97.8378 6.87059 97.8167 6.87648 97.8 6.88959C97.7833 6.90271 97.7722 6.922 97.7693 6.94332L97.75 7.10701C97.7495 7.11618 97.7504 7.12536 97.7526 7.13426V7.13677C97.7547 7.14467 97.758 7.1522 97.7623 7.1591C97.7645 7.16156 97.7645 7.16654 97.7671 7.169C97.9705 7.47658 97.9077 7.79155 98.0144 8.11894C98.1124 8.41362 98.1615 8.72294 98.1598 9.03413C98.0342 9.06782 97.9211 9.13856 97.8347 9.2375C97.8261 9.24894 97.8206 9.26252 97.8187 9.27684C97.8169 9.29117 97.8187 9.30574 97.8242 9.31909C97.8296 9.33243 97.8384 9.34407 97.8497 9.35283C97.8609 9.36159 97.8743 9.36715 97.8883 9.36896L98.2081 9.40863C98.229 9.41057 98.2499 9.40411 98.2662 9.39061C98.2826 9.37712 98.2931 9.35766 98.2956 9.33636C98.2981 9.31506 98.2924 9.2936 98.2797 9.27653C98.2669 9.25946 98.2482 9.24813 98.2274 9.24494L98.1062 9.23006C98.1265 9.21862 98.1477 9.20867 98.1694 9.20029C98.1774 9.2155 98.1899 9.22774 98.2052 9.23527C98.2204 9.24279 98.2376 9.24521 98.2542 9.24218C98.2709 9.23916 98.2862 9.23084 98.2979 9.21841C98.3097 9.20599 98.3173 9.19009 98.3196 9.173L98.3218 9.15565C98.5665 9.10603 98.855 9.12342 99.0487 9.09859C99.3979 9.05395 99.7322 8.76627 100.096 8.88035C100.348 8.95973 100.224 9.39129 100.232 9.57233C100.269 9.90069 100.281 10.2317 100.265 10.5619C100.21 10.7873 100.184 11.0191 100.188 11.2514C100.248 11.591 100.261 11.9376 100.224 12.2807C100.171 12.8412 100.176 13.3844 100.168 13.9449C100.135 14.584 100.067 15.2207 99.9649 15.8522C99.8728 16.974 99.8413 18.1 99.8705 19.2253C99.8657 19.8031 99.7831 20.3761 99.7831 20.954C99.7831 21.5963 99.8051 22.2362 99.7712 22.8761C99.7418 23.4367 99.708 23.9823 99.7128 24.5453C99.7155 24.8305 99.6742 25.1133 99.6667 25.3985C99.6597 25.7011 99.708 26.0012 99.701 26.3038C99.6838 26.909 99.6184 27.5042 99.6254 28.1119C99.647 28.7254 99.6382 29.3396 99.5991 29.9522C99.5455 30.5722 99.4537 31.1922 99.3615 31.8074C99.3153 32.1199 99.2574 32.4299 99.1968 32.7374C99.1651 32.8937 99.1313 33.0475 99.0949 33.2012C99.0246 33.5014 98.8963 33.4269 98.6684 33.4517C98.41 33.4902 98.1473 33.4852 97.8905 33.4368C97.7078 33.3912 97.5211 33.3638 97.3332 33.355C97.2121 33.3452 97.092 33.3824 96.9967 33.4592C96.9015 33.536 96.8383 33.6468 96.8197 33.7692C96.7999 33.9453 97.0086 34.0494 96.9866 34.2429C96.9625 34.4413 96.9383 34.6422 96.9163 34.8407C96.89 35.0713 96.8777 35.2945 97.0789 35.4408C97.4338 35.5986 97.8237 35.6569 98.2081 35.6095C98.8116 35.617 99.4124 35.5475 100.013 35.5128C100.609 35.478 101.206 35.6343 101.802 35.6467C102.429 35.6591 103.062 35.6269 103.689 35.6095C104.361 35.5921 105.032 35.5797 105.703 35.6095C106.282 35.6368 106.847 35.7187 107.431 35.6988C107.938 35.6815 109.181 35.9518 109.413 35.3069C109.493 34.9979 109.477 34.6711 109.367 34.3719Z" fill="#00A19A"/>
<path d="M125.162 28.9849C125.155 28.8901 125.114 28.8012 125.047 28.7353C124.98 28.6694 124.892 28.6311 124.799 28.6277C124.268 28.5831 123.718 28.7319 123.204 28.5533C122.976 28.4739 122.807 28.4765 122.673 28.6922C122.414 29.1138 122.455 29.7661 122.351 30.2423C122.284 30.5145 122.196 30.7808 122.087 31.0385C121.924 31.4328 121.481 31.5494 121.115 31.6461C120.856 31.7226 120.58 31.7222 120.32 31.6449C120.061 31.5676 119.828 31.4167 119.649 31.2096C119.232 30.7137 118.985 30.0916 118.947 29.4388C118.755 28.1862 118.762 26.9139 118.571 25.6614C118.459 25.0557 118.384 24.4436 118.345 23.8285C118.345 23.2027 118.293 22.5779 118.19 21.9609C118.104 21.3407 118.088 20.7124 118.142 20.0884C118.159 19.4584 118.132 18.826 118.115 18.196C118.064 17.5855 118.058 16.972 118.098 16.3606C118.168 15.8389 118.198 15.3122 118.185 14.7857C118.171 14.2674 118.137 13.754 118.105 13.238C118.092 12.7102 118.165 12.1838 118.321 11.6805C118.53 10.867 118.954 9.74099 119.853 9.55744C120.143 9.49744 120.443 9.50082 120.732 9.56735C120.898 9.60804 121.052 9.68695 121.183 9.79801C121.324 9.91213 121.36 10.0783 121.472 10.2048C121.691 10.4976 121.805 10.8582 121.796 11.2266C121.77 11.463 121.79 11.7023 121.854 11.931C121.992 12.2658 122.542 12.1989 122.826 12.2286C122.919 12.254 123.015 12.2594 123.11 12.2444C123.204 12.2294 123.295 12.1944 123.375 12.1416C123.456 12.0888 123.525 12.0194 123.577 11.9379C123.63 11.8563 123.665 11.7644 123.681 11.6681C123.772 11.1284 123.767 10.5765 123.667 10.0386C123.548 9.37926 123.31 8.74835 122.964 8.17846C122.392 7.10701 121.224 6.00082 119.964 5.98348C119.95 5.98342 119.936 5.98751 119.923 5.99527C119.911 6.00303 119.901 6.01414 119.895 6.02734C119.889 6.04054 119.886 6.05529 119.888 6.0699C119.889 6.08452 119.895 6.0984 119.904 6.10997C119.857 6.10002 119.814 6.08764 119.768 6.0802C119.028 5.92869 118.263 5.96748 117.542 6.19306C116.821 6.41865 116.166 6.82393 115.636 7.37236C114.903 8.16702 114.427 9.17214 114.272 10.2519C114.046 11.4785 113.897 12.7187 113.826 13.9648C113.654 16.6186 113.775 19.2823 113.858 21.9361C113.896 23.1936 113.928 24.4511 113.959 25.706C113.976 26.3013 113.976 26.899 114.01 27.4943C114.032 27.7173 114.073 27.9379 114.131 28.154C114.182 28.4575 114.212 28.7641 114.221 29.0717C114.242 29.283 114.285 29.4916 114.347 29.6942C114.415 30.0594 114.439 30.4318 114.417 30.8029C114.45 31.0559 114.507 31.3051 114.587 31.5469C114.667 31.8867 114.761 32.224 114.866 32.5588C115.119 33.507 115.655 34.3512 116.4 34.9745C117.171 35.5388 118.073 35.8877 119.017 35.9865C119.922 36.1933 120.867 36.1057 121.721 35.736C122.707 35.3409 123.549 34.6444 124.132 33.7419C124.377 33.2787 124.559 32.784 124.675 32.2711C124.823 31.6684 125.002 31.0732 125.096 30.4556C125.186 29.9709 125.208 29.4758 125.162 28.9849ZM121.042 6.43484C120.709 6.37226 120.383 6.27674 120.068 6.14963C120.409 6.17506 120.741 6.27217 121.042 6.43484Z" fill="#00A19A"/>
<path d="M144.746 23.8648C144.441 23.0177 143.972 22.2422 143.367 21.5846C142.761 20.927 142.032 20.4009 141.223 20.0379C141.366 19.7576 141.867 19.6336 142.12 19.5096C142.249 19.4253 142.36 19.3137 142.444 19.1822C142.676 18.9073 142.889 18.6155 143.079 18.3092C143.358 17.879 143.607 17.429 143.823 16.9624C144.048 16.3868 144.24 15.7979 144.397 15.199C144.53 14.6386 144.597 14.0642 144.599 13.4877C144.657 12.9449 144.668 12.398 144.632 11.8532C144.521 10.9029 144.089 10.0218 143.411 9.36062C143.09 9.05287 142.72 8.80444 142.316 8.62646C141.756 8.36851 141.189 8.11552 140.622 7.86998C139.568 7.41117 138.402 7.36402 137.275 7.22516C136.795 7.16563 136.303 7.13336 135.831 7.03663C135.538 6.97711 135.126 6.77621 134.835 6.93497C134.583 7.07137 134.719 7.75344 134.748 7.96922C134.821 8.50741 134.666 9.03816 134.767 9.57389C134.779 9.61607 134.792 9.66071 134.804 9.70289C134.81 9.71766 134.82 9.73019 134.834 9.7389C134.847 9.74761 134.863 9.75211 134.878 9.75185C134.894 9.75158 134.91 9.74655 134.923 9.73739C134.936 9.72824 134.946 9.71536 134.952 9.70038C134.968 9.64829 134.981 9.59621 134.995 9.54412C134.878 11.733 134.894 13.9272 135.041 16.1142C135.167 18.7308 135.703 21.3028 135.778 23.9194C135.851 26.474 135.621 29.0981 136.059 31.6279C136.153 32.2654 136.19 32.9106 136.168 33.555C136.166 33.7956 136.127 34.0361 136.127 34.2767C136.127 34.552 136.178 34.8224 136.17 35.1001C136.156 35.6532 136.006 36.1939 135.942 36.7396C135.902 37.0943 136.253 37.2059 136.519 37.2654C136.946 37.2967 137.375 37.2615 137.792 37.1612C138.349 37.1266 138.902 37.042 139.444 36.9082C140.373 36.684 141.216 36.1863 141.87 35.4771C143.282 33.9435 144.29 32.0684 144.797 30.0281C145.337 28.0081 145.319 25.8753 144.746 23.8648ZM139.054 16.6127C138.868 16.8731 138.596 17.5453 138.191 17.456C137.772 17.3642 137.881 16.5755 137.913 16.2952C137.948 15.8456 137.96 15.3944 137.947 14.9436C137.965 14.4538 137.952 13.9633 137.908 13.4752C137.791 12.7379 137.73 11.9925 137.724 11.2456C137.716 11.2374 137.711 11.2276 137.707 11.2169C137.704 11.2061 137.703 11.1948 137.704 11.1836L137.721 11.0447C137.639 10.8846 137.605 10.7034 137.624 10.5238C137.624 10.5163 137.625 10.5087 137.627 10.5015C137.634 10.3924 137.648 10.2857 137.661 10.1816C137.663 10.1655 137.669 10.1504 137.679 10.1381C137.69 10.1258 137.703 10.1169 137.719 10.1124C137.734 10.1079 137.75 10.108 137.765 10.1128C137.78 10.1176 137.794 10.1269 137.804 10.1394C137.837 10.1882 137.864 10.2406 137.886 10.2956C137.897 10.2957 137.908 10.2981 137.918 10.3028C137.928 10.3075 137.936 10.3143 137.944 10.3227C137.951 10.3312 137.956 10.3412 137.959 10.3519C137.962 10.3626 137.963 10.3739 137.961 10.3849L137.951 10.4643C138.526 10.5214 139.093 10.5561 139.517 11.0199C139.942 11.4969 140.237 12.0793 140.372 12.7089C140.661 14.1151 139.837 15.5264 139.054 16.6127ZM139.74 32.109C139.727 32.1146 139.713 32.1167 139.699 32.115C139.685 32.1133 139.672 32.1079 139.661 32.0994C139.649 32.0909 139.64 32.0795 139.635 32.0664C139.629 32.0533 139.627 32.0389 139.628 32.0247C139.719 31.3388 139.714 30.6432 139.614 29.9587C139.522 29.3635 139.347 28.7806 139.275 28.1829C139.215 27.7718 139.177 27.3579 139.158 26.9428C139.175 26.6394 139.17 26.3352 139.144 26.0325C139.118 25.7413 139.117 25.4484 139.141 25.157C139.139 25.071 139.129 24.9854 139.11 24.9015C139.049 24.8966 138.991 24.8892 138.93 24.8817C138.92 24.8805 138.91 24.8771 138.9 24.8718C138.891 24.8665 138.883 24.8594 138.876 24.8508C138.87 24.8423 138.865 24.8325 138.862 24.8221C138.86 24.8116 138.859 24.8007 138.86 24.7899C138.887 24.594 138.916 24.4328 139.127 24.4105C139.139 24.4092 139.152 24.411 139.164 24.4158C139.176 24.4205 139.186 24.428 139.194 24.4378L139.202 24.4452C139.205 24.4477 139.207 24.4526 139.209 24.4551C139.214 24.4626 139.216 24.4712 139.216 24.4799C139.216 24.4849 139.219 24.4898 139.219 24.4973C139.216 24.5785 139.22 24.6599 139.231 24.7404C139.5 24.7406 139.765 24.8097 140.002 24.9413C140.34 25.1253 140.658 25.3448 140.951 25.596C141.24 25.8668 141.467 26.1981 141.618 26.5671C141.769 26.9362 141.84 27.3343 141.826 27.734C141.666 29.3659 141.361 31.3104 139.74 32.109Z" fill="#00A19A"/>
<path d="M160.168 29.103C160.178 28.5028 160.168 27.9001 160.19 27.2999C160.211 26.6898 160.301 26.0871 160.297 25.4745C160.292 24.9462 160.248 24.4204 160.221 23.8921C160.19 23.2473 160.262 22.6123 160.253 21.9699C160.228 20.3504 159.957 18.7507 159.93 17.1336C159.893 15.6199 159.745 14.1111 159.489 12.6196C159.375 11.8973 159.19 11.1885 158.937 10.504C158.696 9.95124 158.357 9.44909 157.936 9.02329C157.577 8.59277 157.066 8.32516 156.514 8.27923C156.207 8.2396 155.899 8.22715 155.59 8.24202C155.29 8.31763 154.983 8.36497 154.675 8.38344C154.661 8.38197 154.647 8.38414 154.634 8.38975C154.622 8.39535 154.611 8.40419 154.602 8.41542C154.594 8.42664 154.589 8.43987 154.587 8.45382C154.585 8.46776 154.587 8.48195 154.592 8.495C153.119 8.686 151.926 9.75247 151.18 11.0968C150.905 11.6044 150.675 12.1365 150.494 12.6865C150.363 13.1779 150.298 13.6853 150.303 14.1945C150.247 15.2933 149.944 16.4069 150.039 17.5031C150.152 18.835 150.247 20.1445 150.257 21.4838C150.267 22.7859 150.259 24.0906 150.315 25.3927C150.368 26.6948 150.447 27.9944 150.553 29.2915C150.606 29.919 150.664 30.549 150.727 31.174C150.76 31.7934 150.839 32.4094 150.962 33.0168C151.224 34.0734 151.953 34.9588 152.479 35.8864C152.641 36.1716 152.607 36.1542 152.872 36.3278C153.05 36.4685 153.219 36.621 153.378 36.7842C153.698 37.0158 154.073 37.1554 154.464 37.1885C155.949 37.4564 157.808 37.1563 158.762 35.8492C159.359 34.9175 159.728 33.8536 159.838 32.7464C160.031 31.5412 160.141 30.3238 160.168 29.103ZM156.334 32.7688C156.012 33.2946 155.413 33.1606 155.006 32.801C154.728 32.5861 154.54 32.2714 154.48 31.9205C154.416 31.365 154.387 30.8058 154.393 30.2464C154.357 29.6264 154.442 29.0286 154.461 28.4111C154.478 27.721 154.459 27.0305 154.403 26.3426C154.352 25.6928 154.258 25.0429 154.253 24.3931C154.306 23.7261 154.303 23.0556 154.243 22.3891C154.11 21.6996 154.042 21.0027 153.947 20.3057C153.867 19.713 153.698 19.1525 153.594 18.5672C153.414 17.363 153.295 16.1502 153.237 14.9336C153.168 14.5089 153.231 14.0727 153.417 13.6861C153.595 13.3451 153.851 13.0526 154.163 12.8329C154.502 12.5998 154.837 12.7213 155.222 12.7684C155.394 12.7882 155.564 12.8056 155.734 12.8403C155.869 12.887 156 12.9476 156.124 13.0214C156.14 13.0093 156.16 13.004 156.179 13.0065C156.303 13.0189 156.339 13.1454 156.366 13.252C156.392 13.3537 156.48 13.5249 156.41 13.6216C156.412 13.6464 156.412 13.6712 156.412 13.6985C156.603 14.3308 156.635 15.0022 156.504 15.6504C156.233 17.7685 156.371 19.8643 156.46 21.9898C156.467 22.3056 156.495 22.6206 156.545 22.9323C156.599 23.1821 156.632 23.4359 156.644 23.6912C156.652 24.0434 156.717 24.4006 156.702 24.7503C156.674 24.9833 156.673 25.2188 156.698 25.4522C156.736 25.6481 156.747 25.8485 156.729 26.0474C156.696 26.4599 156.685 26.8738 156.695 27.2875C156.7 27.7736 156.633 28.2523 156.63 28.7384C156.635 29.2045 156.617 29.6706 156.577 30.1348C156.521 30.6606 156.533 31.1864 156.516 31.7122C156.542 32.0743 156.479 32.4372 156.334 32.7688Z" fill="#00A19A"/>
<path d="M178.221 36.3601C178.156 35.8616 177.989 35.373 177.901 34.877C177.48 32.5247 176.911 30.2025 176.198 27.9249C175.822 26.7047 175.526 25.4596 175.115 24.2542C174.908 23.6596 174.732 23.0545 174.586 22.4412C174.528 22.1882 174.509 21.9154 174.436 21.6674C174.308 21.2135 174.543 20.8613 174.593 20.4223C174.64 19.9226 174.713 19.4258 174.812 18.9342C175.001 18.3897 175.16 17.8349 175.289 17.2725L175.379 16.5036C175.431 16.3153 175.499 16.1319 175.582 15.9555C175.629 15.7683 175.659 15.5775 175.674 15.385C175.713 15.0527 175.89 14.7526 175.951 14.4227C176.012 13.8723 176.115 13.3275 176.259 12.7932C176.455 12.2194 176.595 11.627 176.675 11.0248C176.743 10.5114 176.671 9.99554 176.697 9.48214C176.707 9.29115 176.891 8.8348 176.731 8.66614C176.542 8.46524 176.176 8.5496 175.934 8.5595C175.453 8.59456 174.975 8.66335 174.504 8.76537C174.25 8.81248 173.927 8.82736 173.784 9.07044C173.577 9.50133 173.467 9.97425 173.462 10.4544C173.454 10.8356 173.41 11.2151 173.331 11.5878C173.227 11.8926 173.147 12.2053 173.091 12.5229C172.936 13.4003 172.724 14.2661 172.456 15.1147C172.243 15.9829 172.086 16.8644 171.986 17.7536C171.972 18.2351 171.883 18.7113 171.725 19.1649C171.627 19.4173 171.571 19.6848 171.56 19.956C171.351 19.5289 171.192 19.0787 171.085 18.6143C170.949 18.1281 170.821 17.647 170.661 17.1683C170.309 16.1142 169.842 15.1073 169.478 14.0581C169.282 13.4951 169.1 12.9272 168.943 12.3492C168.824 11.9152 168.538 11.5457 168.385 11.1191C168.138 10.4246 168.235 9.58877 167.775 8.99106C167.709 8.60798 167.501 8.26529 167.195 8.03368C166.977 7.92235 166.727 7.89335 166.49 7.95184C165.941 8.01424 165.387 8.02587 164.835 7.98657C164.422 7.96694 164.01 8.05395 163.638 8.23956C163.391 8.36605 163.398 8.85466 163.429 9.07788C163.655 10.2935 163.959 11.4924 164.341 12.6667C164.699 13.9391 165.174 15.1692 165.608 16.4168C165.918 17.5278 166.313 18.6124 166.788 19.6609C166.917 19.8732 167.022 20.0994 167.101 20.3355C167.125 20.627 167.1 20.9205 167.028 21.2036L166.815 23.0166C166.784 23.6674 166.675 24.312 166.493 24.9363C166.336 25.4963 166.246 26.0733 166.224 26.6551C166.194 27.1041 166.115 27.5484 165.989 27.9795C165.873 28.3584 165.799 28.7494 165.768 29.1452C165.729 29.614 165.641 30.0772 165.504 30.5267C165.384 30.969 165.31 31.4228 165.283 31.8809C165.167 32.868 165.211 33.865 165.095 34.8546L165.017 35.5094C164.993 35.7227 165.022 35.683 165.066 35.8814C165.126 36.1592 165.063 36.4792 165.208 36.7321C165.216 36.7483 165.228 36.7618 165.243 36.7706C165.258 36.7795 165.276 36.7834 165.293 36.7817C166.001 36.69 166.827 36.4568 167.535 36.5709C167.695 36.6274 167.865 36.6458 168.033 36.6248C168.201 36.6037 168.362 36.5437 168.504 36.4494C168.821 36.1493 168.763 35.3928 168.812 34.9985C168.892 34.3114 169.064 33.6715 169.199 32.9944C169.33 32.3446 169.463 31.6899 169.587 31.0376C169.73 30.291 169.939 29.5718 170.026 28.8129C170.115 28.0613 170.324 27.3346 170.484 26.598C170.619 25.9681 170.738 25.3331 170.83 24.6932C170.879 24.8777 170.938 25.0591 171.007 25.2364C171.105 25.5142 171.17 25.8032 171.199 26.097C171.259 26.339 171.337 26.576 171.431 26.8063C171.637 27.3495 171.797 27.91 172.01 28.4507C172.175 28.7704 172.32 29.1001 172.444 29.4379C172.517 29.7132 172.599 29.986 172.689 30.2538C172.859 30.7623 173.132 31.2112 173.329 31.7047C173.542 32.2429 173.75 32.7861 173.971 33.3194C174.383 34.3629 174.917 35.3514 175.563 36.2634C175.791 36.5734 175.917 36.9033 176.338 36.9777C176.851 37.0401 177.37 36.9919 177.863 36.8363C177.97 36.8183 178.068 36.759 178.134 36.6706C178.201 36.5821 178.232 36.4711 178.221 36.3601Z" fill="#00A19A"/>
<path d="M184.468 39.7605C184.433 39.2204 184.324 38.6879 184.146 38.1781C183.962 37.5655 183.882 36.938 183.705 36.3229C183.494 35.7054 183.325 35.074 183.199 34.433C183.104 33.7856 183.048 33.1333 182.99 32.481C182.937 31.9032 182.879 31.3278 182.794 30.7548C182.668 30.1237 182.582 29.485 182.537 28.8426C182.52 28.2424 182.518 27.6471 182.455 27.0519C182.392 26.4417 182.268 25.8416 182.198 25.2339C182.13 24.6585 182.154 24.0757 182.13 23.4978C182.062 22.8366 181.962 22.1794 181.83 21.5285C181.747 20.9382 181.708 20.3429 181.679 19.7477C181.648 19.0879 181.502 18.4233 181.449 17.7635C181.342 16.4589 181.333 15.1469 181.265 13.8398C181.233 13.2198 181.158 12.6047 181.127 11.9872C181.09 11.2927 181.115 10.5958 181.108 9.90127C181.05 8.69265 180.902 7.49032 180.664 6.30498C180.475 5.12443 180.49 3.92151 180.317 2.73598C180.244 2.22257 180.179 1.72158 180.145 1.20572C180.124 0.865925 180.199 0.536059 179.903 0.295476C179.755 0.207198 179.588 0.156982 179.416 0.149146C179.089 0.0995405 178.757 0.0672993 178.427 0.0251343C178.185 -0.0279069 177.932 0.00353338 177.71 0.114417C177.38 0.314187 177.009 0.43384 176.627 0.464127C176.292 0.412042 175.352 0.141706 174.972 0.426924C174.872 0.417 174.773 0.404602 174.671 0.397161C174.448 0.396712 174.226 0.412461 174.005 0.444288C173.498 0.479008 172.992 0.479008 172.48 0.521173L170.484 0.67991C169.813 0.731994 169.17 0.82376 168.492 0.818798C167.855 0.813836 167.229 0.846082 166.592 0.888243C165.269 0.97753 163.939 0.975047 162.613 1.01721C161.28 1.05938 159.952 1.14122 158.617 1.15858C157.456 1.17347 156.32 1.22803 155.164 1.31236C153.986 1.39916 152.813 1.17099 151.631 1.21315C150.979 1.23795 150.332 1.3446 149.678 1.34707C149.045 1.34956 148.413 1.36196 147.78 1.38924C147.155 1.41901 146.532 1.51821 145.907 1.53062C145.204 1.5455 144.501 1.5579 143.799 1.56286C142.492 1.57526 141.187 1.56038 139.88 1.50829C138.945 1.47109 138.017 1.57773 137.081 1.53309C136.669 1.51325 136.27 1.45125 135.858 1.46861C135.61 1.47853 135.354 1.54549 135.102 1.58022L135.104 1.5579C135.106 1.53625 135.1 1.51449 135.087 1.49732C135.074 1.48015 135.055 1.46895 135.034 1.46613C134.475 1.37249 133.911 1.32439 133.345 1.32228C132.788 1.37332 132.238 1.48984 131.707 1.66951C131.416 1.75136 131.159 1.63479 130.936 1.89273C130.864 1.99765 130.819 2.11973 130.805 2.2474C130.791 2.58415 130.801 2.92153 130.834 3.25685C130.805 3.83721 130.708 4.41758 130.641 4.99299C130.573 5.56094 130.631 6.1289 130.599 6.6969C130.559 7.22243 130.548 7.74997 130.568 8.27677C130.633 8.94952 130.638 9.62697 130.582 10.3006C130.522 10.8484 130.516 11.4009 130.563 11.9499L130.633 12.8924C130.693 13.287 130.716 13.6864 130.703 14.0854C130.616 14.6235 130.564 15.1671 130.548 15.7124C130.563 16.3622 130.512 16.9997 130.51 17.652C130.558 18.8495 130.67 20.0434 130.846 21.2284C130.982 22.5479 130.951 23.8872 131.065 25.2116C131.197 26.5961 131.235 27.9885 131.176 29.3784C131.144 30.0182 131.108 30.6581 131.089 31.298C131.074 31.7941 131.152 32.2752 131.094 32.7663L130.897 34.4379C130.861 34.743 130.815 35.0506 130.805 35.3581C130.798 35.6607 130.847 35.9608 130.839 36.2659C130.847 36.7687 130.897 37.2699 130.989 37.7639C131.033 38.064 131.091 38.3591 131.159 38.6518C131.219 38.9952 131.257 39.3424 131.271 39.691C131.3 39.9911 131.338 40.2887 131.387 40.5839C131.403 40.8489 131.458 41.1099 131.552 41.3577C131.673 41.5685 131.585 42.129 131.818 42.2605C132.178 42.4024 132.566 42.4551 132.95 42.4143C133.471 42.4391 133.993 42.4316 134.513 42.392C135.11 42.2967 135.714 42.2495 136.318 42.2506C136.592 42.2655 136.864 42.3077 137.135 42.3399C137.469 42.3796 137.796 42.3523 138.131 42.3721C138.412 42.387 138.688 42.3027 138.972 42.32C139.224 42.3349 139.478 42.382 139.73 42.4143C140.305 42.4891 140.886 42.4982 141.463 42.4416C142.076 42.3821 142.687 42.32 143.3 42.2705L144.22 42.1985C144.581 42.1688 144.889 42.0274 145.248 41.9679C145.769 41.8786 146.37 42.1043 146.898 42.1216C147.114 42.1266 147.33 42.0968 147.545 42.0844C147.897 42.0646 148.255 42.1315 148.609 42.1291C149.78 42.1577 150.948 42.2645 152.106 42.449C152.352 42.4771 152.601 42.473 152.847 42.4366C153.172 42.4147 153.499 42.4338 153.819 42.4936C154.058 42.5481 154.301 42.5772 154.546 42.5805C154.939 42.5358 155.333 42.5383 155.729 42.5333C156.904 42.5234 158.064 42.1886 159.24 42.3324C159.703 42.3659 160.168 42.361 160.631 42.3176C160.9 42.3077 161.166 42.2729 161.438 42.2754C161.705 42.2559 161.97 42.2094 162.228 42.1365C162.867 42.0846 163.511 42.1298 164.137 42.2705C164.763 42.293 165.389 42.2548 166.008 42.1563C166.59 42.1092 167.169 42.0646 167.746 41.9728C168.376 41.9042 169 41.7823 169.611 41.6082C170.122 41.3883 170.675 41.2899 171.228 41.3205C171.82 41.4192 172.421 41.4624 173.021 41.4495C174.189 41.38 175.333 41.0402 176.498 40.9163C177.136 40.886 177.775 40.9293 178.403 41.0452C179.028 41.1221 179.661 41.1841 180.281 41.2932C180.736 41.3905 181.2 41.4363 181.665 41.4297C182.165 41.3773 182.653 41.2398 183.109 41.0229C183.321 40.9158 183.543 40.8286 183.77 40.7625C183.885 40.7417 183.995 40.7023 184.098 40.6459C184.235 40.5486 184.342 40.414 184.407 40.2574C184.473 40.1009 184.494 39.9287 184.468 39.7605ZM181.389 38.1706C181.299 38.2004 181.194 38.2053 181.168 38.3219C181.165 38.3352 181.16 38.3477 181.152 38.3584C181.143 38.369 181.133 38.3776 181.121 38.3834C181.109 38.3892 181.096 38.392 181.082 38.3917C181.069 38.3913 181.056 38.3878 181.044 38.3814C181.023 38.3993 181 38.4159 180.977 38.4311C180.624 38.6191 180.24 38.7393 179.845 38.7857C179.212 38.891 178.575 38.963 177.935 39.0015C176.58 39.0957 175.219 39.1205 173.862 39.1131C172.228 39.1032 170.597 39.004 168.964 39.0189C166.34 39.0461 163.72 39.2049 161.101 39.3388C155.825 39.6091 150.557 39.9986 145.287 40.3507C142.723 40.5219 140.152 40.4996 137.586 40.4103C136.468 40.3706 134.406 40.8269 133.9 39.4157C133.863 39.3165 134.011 39.2495 134.048 39.3512C134.066 39.4041 134.089 39.4555 134.115 39.505C134.098 39.1793 134.103 38.8528 134.13 38.5278C134.135 37.3797 134.079 36.2322 133.963 35.0902C133.432 29.7057 133.415 24.2939 133.335 18.8896C133.255 13.7903 133.417 8.65868 132.473 3.62885C132.456 3.61685 132.445 3.59875 132.441 3.57837C132.437 3.558 132.442 3.53696 132.453 3.51972C132.451 3.51228 132.451 3.50483 132.448 3.49491C132.429 3.39819 132.562 3.37339 132.598 3.45027C132.711 3.43165 132.825 3.43165 132.938 3.45027C132.951 3.45172 132.964 3.45656 132.974 3.46433C132.985 3.47209 132.994 3.48254 133 3.49468C133.005 3.50682 133.008 3.52027 133.007 3.53376C133.007 3.54725 133.003 3.56033 132.996 3.5718C135.153 3.94631 137.362 3.84214 139.541 3.82726C141.984 3.8099 144.424 3.93639 146.867 3.92151C149.569 3.90415 152.268 3.8223 154.965 3.72061C157.606 3.62141 160.255 3.56189 162.894 3.39819C165.465 3.23946 168.024 2.90215 170.593 2.71614C173.079 2.53756 175.582 2.52268 178.04 2.05392C178.141 2.03408 178.166 2.19777 178.064 2.21761C178.056 2.21761 178.051 2.22009 178.044 2.22009C178.41 4.6507 178.618 7.10113 178.82 9.55156C179.254 14.8319 179.789 20.0999 180.293 25.3753C180.419 26.6848 180.555 27.9944 180.645 29.3064C180.692 30.2491 180.689 31.1938 180.637 32.1363C180.565 34.0808 180.388 36.2088 181.078 38.0689C181.091 38.0664 181.104 38.0672 181.116 38.071C181.128 38.0749 181.139 38.0819 181.148 38.0913C181.204 38.0639 181.262 38.0407 181.321 38.0218C181.422 37.9871 181.488 38.1384 181.389 38.1706Z" fill="#00A19A"/>
<path d="M207.23 17.5791C207.318 21.9016 207.504 26.2221 207.504 30.5459C207.504 31.865 207.443 33.1828 207.443 34.5018C207.443 35.4255 207.618 36.3384 207.618 37.2621C207.649 37.462 207.601 37.6662 207.487 37.8311C207.251 38.0568 205.445 38.2492 205.051 38.2492C204.117 38.2492 203.916 35.8528 203.762 35.1677C202.779 30.8089 201.373 26.4568 200.116 22.1715C199.692 20.724 198.845 17.2616 198.177 16.0242C198.185 17.3208 198.291 18.6149 198.495 19.8948C198.986 24.3905 198.822 28.9247 199.1 33.4331C199.163 34.4513 199.344 35.4618 199.344 36.4836C199.344 37.5645 199.023 37.8029 198.025 37.8029C197.137 37.8029 196.192 37.8938 196.192 36.6715C196.192 27.9532 195.77 19.2372 195.471 10.5261C195.408 8.7134 195.154 6.91126 195.154 5.09594C195.137 4.83664 195.182 4.57702 195.284 4.33881C196.306 4.45846 197.712 3.96837 198.07 5.41445C199.803 12.4292 202.06 19.2588 203.855 26.2247C204.064 27.0309 204.32 28.711 204.777 29.3301C204.572 21.3899 203.706 13.0148 203.706 5.19547C203.7 5.03494 203.753 4.87792 203.855 4.75563C203.957 4.63334 204.101 4.55476 204.257 4.53549C204.513 4.53549 204.764 4.59029 205.018 4.61614C206.568 4.77551 207.142 4.51683 207.142 6.44223C207.142 7.33672 207 8.2238 207 9.11829C207 11.9406 207.172 14.759 207.231 17.5801L207.23 17.5791Z" fill="#303030"/>
<path d="M217.289 6.56403C217.647 6.54345 218.006 6.49822 218.365 6.49822C219.393 6.49822 219.703 7.08451 219.703 8.06945C219.703 8.42313 219.662 9.9587 219.156 9.9587C218.43 9.9587 217.733 9.53969 217.022 9.4569C216.166 9.35599 215.305 9.30238 214.443 9.29633C214.037 9.29633 213.947 9.44804 213.947 9.8472C213.947 10.634 214.062 11.4213 214.062 12.2143C214 13.5267 214.026 14.8419 214.138 16.1508C214.199 16.5987 214.192 17.0972 214.744 17.0972C215.337 17.0972 215.933 16.9926 216.528 16.9926C217.446 16.9926 217.765 18.0587 217.765 18.8611C217.765 19.588 217.205 19.948 216.542 19.948C216.115 19.948 215.692 19.8652 215.264 19.8652C214.889 19.8652 214.336 19.9594 214.336 20.4474C214.336 21.1337 214.665 21.797 214.665 22.5293C214.665 23.3843 214.597 24.2378 214.597 25.0943C214.597 28.3459 215.115 31.5864 215.115 34.8224C215.115 35.7028 213.828 36.2855 213.095 36.2855C212.222 36.2855 212.054 35.6298 212.054 34.8698C212.054 34.2912 212.176 33.7198 212.176 33.1445C212.176 28.4562 211.736 23.7839 211.522 19.1035C211.344 15.229 210.893 11.3536 210.893 7.47266C210.893 6.82296 211.015 6.30177 211.747 6.30177C212.286 6.30177 212.835 6.45827 213.372 6.51236C214.103 6.58606 214.84 6.61477 215.574 6.61477C216.146 6.61477 216.717 6.59563 217.289 6.5638L217.289 6.56403Z" fill="#303030"/>
<path d="M231.996 7.73755C232.008 8.08925 231.883 8.43142 231.649 8.68997C231.415 8.94852 231.091 9.10265 230.747 9.119C230.199 9.119 229.75 8.70238 229.226 8.70238C228.866 8.70238 228.862 9.18504 228.862 9.43678C228.868 9.71106 228.889 9.98479 228.924 10.2569C229.26 13.5089 229.229 16.782 229.374 20.0456C229.525 23.4651 229.716 26.882 229.983 30.2944C230.03 30.9109 230.048 31.5285 230.048 32.1468C230.028 32.7957 230.045 33.4453 230.1 34.0921C230.223 34.6583 230.313 35.2316 230.369 35.8088C230.369 36.8062 229.312 36.9232 228.564 36.9232C227.415 36.9232 227.278 36.4676 227.278 35.4053C227.278 34.4417 227.395 33.4824 227.395 32.5187L227.393 32.4067C227.161 25.0746 226.647 17.7538 226.475 10.4191C226.455 9.54471 226.535 8.6349 225.39 8.6349C224.732 8.6349 224.138 9.00821 223.479 9.00821C222.636 9.00821 222.529 8.2482 222.529 7.56333C222.529 7.12781 222.609 5.66451 223.219 5.66451C223.569 5.70417 223.914 5.7861 224.245 5.90859C225.294 6.11816 226.364 6.20065 227.432 6.15435C228.273 6.15435 229.107 6.00192 229.948 6.00192C230.394 5.9811 230.839 6.05602 231.254 6.22183C231.499 6.38447 231.696 6.61062 231.827 6.87701C231.957 7.1434 232.016 7.44043 231.996 7.73755Z" fill="#303030"/>
</svg>
